<svg width="490" height="86" viewBox="0 0 490 86" fill="none" xmlns="http://www.w3.org/2000/svg">
<path d="M41.689 27.7501H61.426C62.143 27.7501 62.7884 27.7142 63.362 27.6425C63.9715 27.5708 64.4914 27.4274 64.9216 27.2123C65.3519 26.9613 65.6746 26.6028 65.8897 26.1367C66.1406 25.6706 66.2661 25.0432 66.2661 24.2544C66.2661 22.9996 65.8897 22.175 65.1368 21.7806C64.3838 21.3862 63.2007 21.189 61.5873 21.189H41.689V27.7501ZM41.689 14.0901H60.4042C61.8383 14.0901 62.9318 13.893 63.6847 13.4986C64.4735 13.1042 64.8679 12.2258 64.8679 10.8634C64.8679 8.85563 63.8102 7.85175 61.6949 7.85175H41.689V14.0901ZM30.8794 35.8169V-1.30188e-05H64.7065C68.5069 -1.30188e-05 71.3034 0.717044 73.0961 2.15116C74.9246 3.54942 75.8388 5.9157 75.8388 9.25001C75.8388 10.72 75.7133 11.921 75.4624 12.8532C75.2114 13.7854 74.817 14.5562 74.2792 15.1657C73.7773 15.7752 73.1319 16.2592 72.3432 16.6178C71.5544 16.9763 70.6043 17.299 69.4929 17.5858C70.676 17.7651 71.7516 17.9802 72.7196 18.2311C73.6877 18.4821 74.4943 18.8944 75.1397 19.4681C75.8209 20.0059 76.3408 20.7588 76.6993 21.7268C77.0578 22.6948 77.2371 23.9676 77.2371 25.5451C77.2371 27.4812 77.004 29.1125 76.538 30.439C76.1077 31.7297 75.4086 32.7874 74.4406 33.612C73.4725 34.4008 72.2177 34.9744 70.676 35.3329C69.1702 35.6556 67.3596 35.8169 65.2443 35.8169H30.8794ZM93.2675 -1.30188e-05V26.9434H117.952V35.8707H82.2428V-1.30188e-05H93.2675ZM156.541 -1.30188e-05H167.566V22.5873C167.566 26.065 166.974 28.8077 165.791 30.8155C164.608 32.8232 162.672 34.2753 159.983 35.1716C158.441 35.6735 156.577 35.9783 154.39 36.0858C152.203 36.1934 149.693 36.2472 146.861 36.2472C143.885 36.2472 141.178 36.2293 138.74 36.1934C136.338 36.1934 134.187 36.0858 132.286 35.8707C130.422 35.6198 128.791 35.2254 127.393 34.6876C126.03 34.1139 124.901 33.3073 124.004 32.2675C123.108 31.1919 122.445 29.8295 122.015 28.1803C121.584 26.5311 121.369 24.4875 121.369 22.0495V-1.30188e-05H132.394V18.8227C132.394 20.3285 132.43 21.5834 132.502 22.5873C132.609 23.5553 132.806 24.362 133.093 25.0073C133.38 25.6527 133.792 26.1367 134.33 26.4594C134.904 26.782 135.657 27.0151 136.589 27.1585C137.521 27.3019 138.668 27.3915 140.031 27.4274C141.393 27.4274 143.042 27.4274 144.978 27.4274C146.412 27.4274 147.685 27.4274 148.797 27.4274C149.908 27.4274 150.876 27.3915 151.701 27.3198C152.561 27.2123 153.278 27.0509 153.852 26.8358C154.461 26.5848 154.963 26.2084 155.358 25.7065C155.967 24.9894 156.308 24.0931 156.38 23.0175C156.487 21.9419 156.541 20.5974 156.541 18.9841V-1.30188e-05ZM234.66 -1.30188e-05V35.8707H224.334V8.55088L208.523 35.8707H199.757L184.161 8.55088V35.8707H173.835V-1.30188e-05H191.206L204.382 23.7704L217.397 -1.30188e-05H234.66ZM273.331 21.9419L265.694 7.7442L257.95 21.9419H273.331ZM277.31 29.3634H254.132L250.582 35.8707H238.428L258.434 -1.30188e-05H273.169L292.745 35.8707H280.699L277.31 29.3634ZM307.755 17.9085H324.158C324.445 17.9085 324.678 17.9264 324.857 17.9622C325.036 17.9622 325.269 17.9622 325.556 17.9622C326.847 17.9622 327.851 17.8905 328.568 17.7471C329.321 17.6037 329.877 17.3527 330.235 16.9942C330.629 16.5998 330.863 16.08 330.934 15.4346C331.042 14.7893 331.096 13.9647 331.096 12.9608C331.096 11.9928 330.988 11.2398 330.773 10.7021C330.594 10.1284 330.271 9.69817 329.805 9.41135C329.339 9.08868 328.711 8.89149 327.923 8.81978C327.134 8.74808 326.148 8.71222 324.965 8.71222H307.755V17.9085ZM307.755 26.6207V35.8707H296.731V-1.30188e-05H330.074C332.297 -1.30188e-05 334.161 0.215104 335.667 0.645339C337.208 1.03972 338.445 1.68507 339.378 2.58139C340.346 3.47771 341.027 4.64293 341.421 6.07704C341.851 7.51115 342.067 9.26794 342.067 11.3474C342.067 13.4986 341.887 15.2016 341.529 16.4564C341.206 17.7113 340.704 18.6972 340.023 19.4143C339.378 20.1313 338.571 20.6691 337.603 21.0277C336.635 21.3862 335.541 21.7447 334.322 22.1032C335.326 22.3184 336.276 22.5156 337.173 22.6948C338.069 22.8382 338.84 23.143 339.485 23.6091C340.166 24.0752 340.686 24.7564 341.045 25.6527C341.439 26.5131 341.636 27.768 341.636 29.4172V35.8707H330.612V31.1382C330.612 29.5965 330.289 28.4671 329.644 27.7501C329.034 26.9972 327.779 26.6207 325.879 26.6207H307.755ZM358.54 -1.30188e-05V35.8707H347.515V-1.30188e-05H358.54ZM414.055 -1.30188e-05V35.8707H396.685L375.119 8.92734V35.8707H364.794V-1.30188e-05H382.164L403.73 26.8896V-1.30188e-05H414.055ZM419.606 35.8707V-1.30188e-05H459.617V8.06687H430.415V14.3053H457.681V21.4041H430.415V27.8038H459.617V35.8707H419.606ZM11.0244 66.9085H27.427C27.7139 66.9085 27.9469 66.9264 28.1262 66.9622C28.3054 66.9622 28.5385 66.9622 28.8253 66.9622C30.116 66.9622 31.1199 66.8905 31.8369 66.7471C32.5898 66.6037 33.1456 66.3527 33.5041 65.9942C33.8985 65.5998 34.1315 65.08 34.2032 64.4346C34.3108 63.7893 34.3645 62.9647 34.3645 61.9608C34.3645 60.9928 34.257 60.2398 34.0419 59.7021C33.8626 59.1284 33.5399 58.6982 33.0738 58.4114C32.6078 58.0887 31.9803 57.8915 31.1916 57.8198C30.4028 57.7481 29.4169 57.7122 28.2337 57.7122H11.0244V66.9085ZM11.0244 75.6207V84.8707H-0.000373941V49H33.3427C35.5656 49 37.43 49.2151 38.9358 49.6453C40.4775 50.0397 41.7144 50.6851 42.6465 51.5814C43.6146 52.4777 44.2958 53.6429 44.6902 55.077C45.1204 56.5112 45.3355 58.2679 45.3355 60.3474C45.3355 62.4986 45.1562 64.2016 44.7977 65.4564C44.475 66.7113 43.9731 67.6972 43.2919 68.4143C42.6465 69.1313 41.8399 69.6691 40.8718 70.0277C39.9038 70.3862 38.8103 70.7447 37.5913 71.1032C38.5952 71.3184 39.5453 71.5156 40.4416 71.6948C41.3379 71.8382 42.1088 72.143 42.7541 72.6091C43.4353 73.0752 43.9552 73.7564 44.3137 74.6527C44.7081 75.5131 44.9053 76.768 44.9053 78.4172V84.8707H33.8805V80.1382C33.8805 78.5965 33.5579 77.4671 32.9125 76.7501C32.303 75.9972 31.0482 75.6207 29.148 75.6207H11.0244ZM50.0311 84.8707V49H90.0428V57.0669H60.8407V63.3053H88.1068V70.4041H60.8407V76.8038H90.0428V84.8707H50.0311ZM127.198 59.9709C127.163 59.1463 127.019 58.501 126.768 58.0349C126.517 57.533 126.069 57.1744 125.424 56.9593C124.814 56.7083 123.99 56.547 122.95 56.4753C121.946 56.4036 120.637 56.3677 119.024 56.3677C118.737 56.3677 118.504 56.3677 118.325 56.3677C118.146 56.3677 117.913 56.3857 117.626 56.4215C115.295 56.5291 113.341 56.5829 111.764 56.5829C110.186 56.5829 108.913 56.6725 107.945 56.8518C106.977 56.9952 106.278 57.282 105.848 57.7122C105.418 58.1425 105.203 58.8595 105.203 59.8634C105.203 60.7597 105.525 61.4409 106.171 61.907C106.816 62.3372 107.712 62.5703 108.86 62.6061C110.473 62.642 111.997 62.6778 113.431 62.7137C114.901 62.7495 116.263 62.7675 117.518 62.7675C118.271 62.7675 119.042 62.7675 119.831 62.7675C120.655 62.7316 121.426 62.7137 122.143 62.7137C125.119 62.7137 127.7 62.8033 129.887 62.9826C132.074 63.126 133.867 63.5562 135.265 64.2733C136.699 64.9903 137.757 66.0839 138.438 67.5538C139.119 69.0238 139.46 71.0853 139.46 73.7384C139.46 75.6028 139.281 77.1803 138.922 78.471C138.564 79.7617 137.99 80.8373 137.201 81.6978C136.448 82.5224 135.48 83.1677 134.297 83.6338C133.114 84.0999 131.698 84.4226 130.049 84.6018C129.081 84.7094 127.216 84.8349 124.456 84.9783C121.695 85.1217 118.163 85.1934 113.861 85.1934C109.631 85.1934 106.171 85.0679 103.482 84.8169C100.829 84.566 98.8926 84.0103 97.6736 83.1498C96.8131 82.5403 96.1678 81.8949 95.7375 81.2137C95.3432 80.4967 95.0563 79.7438 94.8771 78.955C94.7337 78.1663 94.662 77.3237 94.662 76.4274C94.662 75.4952 94.662 74.4913 94.662 73.4158H105.472C105.472 73.8101 105.472 74.2224 105.472 74.6527C105.472 75.0829 105.561 75.4773 105.74 75.8358C105.92 76.1585 106.242 76.4632 106.709 76.7501C107.175 77.001 107.892 77.1624 108.86 77.2341C109.326 77.2699 110.186 77.3058 111.441 77.3416C112.732 77.3775 114.345 77.3954 116.281 77.3954C118.791 77.3954 120.835 77.3775 122.412 77.3416C124.025 77.3058 125.28 77.1803 126.177 76.9652C127.073 76.7501 127.682 76.4274 128.005 75.9972C128.328 75.5669 128.489 74.9395 128.489 74.1149C128.489 73.3261 128.328 72.7166 128.005 72.2864C127.682 71.8203 127.216 71.4976 126.607 71.3184C125.997 71.1032 125.262 70.9778 124.402 70.9419C123.577 70.9061 122.663 70.8881 121.659 70.8881C118.146 70.8523 115.026 70.8523 112.302 70.8881C109.577 70.8881 107.21 70.8164 105.203 70.673C103.195 70.5296 101.492 70.2786 100.094 69.9201C98.7313 69.5616 97.6198 68.9879 96.7594 68.1992C95.9347 67.4104 95.3252 66.3707 94.9309 65.08C94.5723 63.7893 94.3931 62.158 94.3931 60.1861C94.3931 58.4293 94.5365 56.9055 94.8233 55.6148C95.146 54.3241 95.6658 53.2485 96.3829 52.3881C97.1 51.4918 98.0321 50.8106 99.1794 50.3445C100.363 49.8425 101.815 49.484 103.536 49.2689C104.683 49.1255 106.529 48.9821 109.075 48.8387C111.656 48.6952 114.883 48.6235 118.755 48.6235C120.799 48.6235 122.627 48.6415 124.241 48.6773C125.89 48.6773 127.342 48.749 128.597 48.8924C129.887 49.0358 131.017 49.251 131.985 49.5378C132.953 49.7888 133.795 50.1831 134.512 50.7209C135.301 51.2946 135.911 51.9041 136.341 52.5494C136.807 53.1948 137.148 53.8939 137.363 54.6468C137.578 55.3997 137.721 56.2243 137.793 57.1206C137.865 57.9811 137.9 58.9312 137.9 59.9709H127.198ZM153.736 65.4027C153.736 67.2311 153.754 68.7728 153.79 70.0277C153.862 71.2825 154.005 72.3222 154.22 73.1469C154.471 73.9715 154.83 74.5989 155.296 75.0291C155.798 75.4594 156.479 75.782 157.34 75.9972C158.236 76.2123 159.329 76.3378 160.62 76.3736C161.947 76.4095 163.542 76.4274 165.406 76.4274C169.135 76.4274 172.039 76.3915 174.119 76.3198C176.198 76.2123 177.722 75.8537 178.69 75.2442C179.694 74.6347 180.303 73.6488 180.518 72.2864C180.734 70.8881 180.841 68.9162 180.841 66.3707C180.841 64.2912 180.734 62.6599 180.518 61.4768C180.339 60.2578 179.927 59.3615 179.281 58.7878C178.636 58.1783 177.686 57.8019 176.431 57.6584C175.176 57.515 173.509 57.4433 171.43 57.4433C167.665 57.4433 164.618 57.4433 162.287 57.4433C159.957 57.4433 158.164 57.6764 156.909 58.1425C155.654 58.5727 154.812 59.3435 154.382 60.455C153.951 61.5664 153.736 63.2156 153.736 65.4027ZM142.604 70.3503C142.604 66.9443 142.64 64.0223 142.712 61.5843C142.819 59.1105 143.16 57.031 143.733 55.3459C144.343 53.6609 145.275 52.3343 146.53 51.3663C147.821 50.3624 149.649 49.6453 152.015 49.2151C153.629 48.9283 156.551 48.7669 160.781 48.7311C165.048 48.6594 170.623 48.6235 177.507 48.6235C179.765 48.6235 181.719 48.8207 183.369 49.2151C185.018 49.6095 186.398 50.2369 187.51 51.0974C188.657 51.922 189.553 53.0155 190.199 54.3779C190.844 55.7403 191.292 57.3895 191.543 59.3256C191.687 60.3295 191.758 61.6381 191.758 63.2515C191.794 64.8649 191.812 66.7471 191.812 68.8983C191.812 71.5156 191.651 73.7384 191.328 75.5669C191.005 77.3596 190.45 78.8654 189.661 80.0844C188.872 81.3034 187.814 82.2535 186.488 82.9347C185.197 83.6159 183.566 84.1357 181.594 84.4943C179.622 84.8169 177.292 85.0141 174.603 85.0858C171.95 85.1934 168.848 85.2472 165.299 85.2472C161.283 85.2472 157.841 85.1217 154.973 84.8707C152.105 84.6556 149.757 84.064 147.928 83.096C146.1 82.0921 144.755 80.6042 143.895 78.6323C143.034 76.6246 142.604 73.8639 142.604 70.3503ZM207.76 66.9085H224.162C224.449 66.9085 224.682 66.9264 224.861 66.9622C225.041 66.9622 225.274 66.9622 225.561 66.9622C226.851 66.9622 227.855 66.8905 228.572 66.7471C229.325 66.6037 229.881 66.3527 230.239 65.9942C230.634 65.5998 230.867 65.08 230.939 64.4346C231.046 63.7893 231.1 62.9647 231.1 61.9608C231.1 60.9928 230.992 60.2398 230.777 59.7021C230.598 59.1284 230.275 58.6982 229.809 58.4114C229.343 58.0887 228.716 57.8915 227.927 57.8198C227.138 57.7481 226.152 57.7122 224.969 57.7122H207.76V66.9085ZM207.76 75.6207V84.8707H196.735V49H230.078C232.301 49 234.165 49.2151 235.671 49.6453C237.213 50.0397 238.45 50.6851 239.382 51.5814C240.35 52.4777 241.031 53.6429 241.425 55.077C241.856 56.5112 242.071 58.2679 242.071 60.3474C242.071 62.4986 241.892 64.2016 241.533 65.4564C241.21 66.7113 240.708 67.6972 240.027 68.4143C239.382 69.1313 238.575 69.6691 237.607 70.0277C236.639 70.3862 235.546 70.7447 234.327 71.1032C235.33 71.3184 236.281 71.5156 237.177 71.6948C238.073 71.8382 238.844 72.143 239.489 72.6091C240.171 73.0752 240.69 73.7564 241.049 74.6527C241.443 75.5131 241.641 76.768 241.641 78.4172V84.8707H230.616V80.1382C230.616 78.5965 230.293 77.4671 229.648 76.7501C229.038 75.9972 227.783 75.6207 225.883 75.6207H207.76ZM270.837 57.9811V84.8707H259.813V57.9811H243.733V49H286.648V57.9811H270.837ZM344.027 77.7181V84.8169H301.917V75.9434C301.917 73.362 302.258 71.3901 302.939 70.0277C303.62 68.6653 304.678 67.6614 306.112 67.016C307.582 66.3707 309.464 65.9584 311.759 65.7791C314.054 65.564 316.814 65.3489 320.041 65.1338C323.089 64.9186 325.509 64.7573 327.301 64.6497C329.13 64.5063 330.528 64.2912 331.496 64.0044C332.464 63.7176 333.091 63.3053 333.378 62.7675C333.701 62.1938 333.862 61.3513 333.862 60.2398C333.862 59.236 333.683 58.4831 333.324 57.9811C333.002 57.4792 332.428 57.1386 331.604 56.9593C330.815 56.7442 329.739 56.6366 328.377 56.6366C327.014 56.6366 325.329 56.6366 323.322 56.6366C320.561 56.6366 318.356 56.6725 316.707 56.7442C315.057 56.8159 313.874 57.1565 313.157 57.766C312.763 58.0887 312.476 58.4293 312.297 58.7878C312.153 59.1105 312.046 59.469 311.974 59.8634C311.902 60.2578 311.867 60.6701 311.867 61.1003C311.867 61.5305 311.867 61.9966 311.867 62.4986H301.917V59.9709C301.917 57.4254 302.168 55.4356 302.67 54.0015C303.208 52.5673 304.302 51.5097 305.951 50.8285C307.636 50.1114 310.038 49.6812 313.157 49.5378C316.276 49.3585 320.417 49.2689 325.58 49.2689C328.915 49.2689 331.747 49.3406 334.077 49.484C336.444 49.5916 338.362 50.0039 339.832 50.7209C341.338 51.4021 342.413 52.4777 343.059 53.9477C343.74 55.3818 344.08 57.4433 344.08 60.1323C344.08 63.4666 343.596 66.048 342.628 67.8765C341.696 69.6691 340.137 70.7626 337.949 71.157C335.906 71.5514 333.683 71.8741 331.281 72.1251C328.915 72.3402 326.423 72.4836 323.806 72.5553C320.651 72.6628 318.248 72.8063 316.599 72.9855C314.986 73.1289 313.821 73.3799 313.103 73.7384C312.386 74.097 311.974 74.5989 311.867 75.2442C311.795 75.8896 311.759 76.7142 311.759 77.7181H344.027ZM360.388 66.9622C360.388 69.221 360.477 70.9778 360.656 72.2326C360.872 73.4516 361.374 74.3659 362.162 74.9754C362.987 75.5848 364.188 75.9613 365.766 76.1047C367.379 76.2123 369.584 76.2661 372.38 76.2661C375.069 76.2661 377.167 76.1943 378.673 76.0509C380.214 75.9075 381.379 75.5311 382.168 74.9216C382.957 74.2762 383.441 73.344 383.62 72.1251C383.835 70.8702 383.943 69.1313 383.943 66.9085C383.943 64.6139 383.835 62.8212 383.62 61.5305C383.441 60.2398 382.957 59.2897 382.168 58.6802C381.415 58.0349 380.25 57.6405 378.673 57.4971C377.131 57.3537 374.998 57.282 372.273 57.282C369.548 57.282 367.397 57.3537 365.819 57.4971C364.242 57.6047 363.041 57.9811 362.216 58.6265C361.427 59.236 360.925 60.1861 360.71 61.4768C360.495 62.7675 360.388 64.596 360.388 66.9622ZM349.793 66.8009C349.793 63.7893 349.919 61.2617 350.17 59.218C350.456 57.1386 350.922 55.4356 351.568 54.109C352.249 52.7825 353.181 51.7607 354.364 51.0436C355.547 50.3265 357.035 49.8067 358.828 49.484C360.656 49.1613 362.844 48.9821 365.389 48.9462C367.935 48.8745 370.928 48.8387 374.37 48.8387C377.238 48.8387 379.73 48.9104 381.845 49.0538C383.997 49.1972 385.807 49.484 387.277 49.9142C388.783 50.3445 390.002 50.9719 390.934 51.7965C391.902 52.5853 392.655 53.6429 393.193 54.9695C393.731 56.296 394.089 57.9273 394.268 59.8634C394.484 61.7994 394.591 64.1119 394.591 66.8009C394.591 69.8843 394.466 72.4836 394.215 74.5989C394 76.7142 393.569 78.4531 392.924 79.8155C392.279 81.142 391.382 82.1638 390.235 82.8809C389.124 83.598 387.636 84.1357 385.771 84.4943C383.943 84.8169 381.72 84.9962 379.103 85.0321C376.486 85.0679 373.384 85.0858 369.799 85.0858C366.859 85.0858 364.331 85.0321 362.216 84.9245C360.101 84.8169 358.29 84.566 356.784 84.1716C355.314 83.7414 354.113 83.1319 353.181 82.3431C352.285 81.5543 351.586 80.4788 351.084 79.1164C350.582 77.7539 350.241 76.0689 350.062 74.0611C349.883 72.0533 349.793 69.6333 349.793 66.8009ZM441.081 77.7181V84.8169H398.972V75.9434C398.972 73.362 399.313 71.3901 399.994 70.0277C400.675 68.6653 401.733 67.6614 403.167 67.016C404.637 66.3707 406.519 65.9584 408.814 65.7791C411.108 65.564 413.869 65.3489 417.096 65.1338C420.143 64.9186 422.563 64.7573 424.356 64.6497C426.184 64.5063 427.583 64.2912 428.551 64.0044C429.519 63.7176 430.146 63.3053 430.433 62.7675C430.756 62.1938 430.917 61.3513 430.917 60.2398C430.917 59.236 430.738 58.4831 430.379 57.9811C430.056 57.4792 429.483 57.1386 428.658 56.9593C427.869 56.7442 426.794 56.6366 425.431 56.6366C424.069 56.6366 422.384 56.6366 420.376 56.6366C417.616 56.6366 415.411 56.6725 413.761 56.7442C412.112 56.8159 410.929 57.1565 410.212 57.766C409.818 58.0887 409.531 58.4293 409.351 58.7878C409.208 59.1105 409.101 59.469 409.029 59.8634C408.957 60.2578 408.921 60.6701 408.921 61.1003C408.921 61.5305 408.921 61.9966 408.921 62.4986H398.972V59.9709C398.972 57.4254 399.223 55.4356 399.725 54.0015C400.263 52.5673 401.356 51.5097 403.006 50.8285C404.691 50.1114 407.093 49.6812 410.212 49.5378C413.331 49.3585 417.472 49.2689 422.635 49.2689C425.969 49.2689 428.802 49.3406 431.132 49.484C433.498 49.5916 435.416 50.0039 436.886 50.7209C438.392 51.4021 439.468 52.4777 440.113 53.9477C440.794 55.3818 441.135 57.4433 441.135 60.1323C441.135 63.4666 440.651 66.048 439.683 67.8765C438.751 69.6691 437.191 70.7626 435.004 71.157C432.961 71.5514 430.738 71.8741 428.336 72.1251C425.969 72.3402 423.478 72.4836 420.86 72.5553C417.705 72.6628 415.303 72.8063 413.654 72.9855C412.04 73.1289 410.875 73.3799 410.158 73.7384C409.441 74.097 409.029 74.5989 408.921 75.2442C408.85 75.8896 408.814 76.7142 408.814 77.7181H441.081ZM457.711 73.5233C457.711 74.5272 457.837 75.316 458.088 75.8896C458.374 76.4274 458.805 76.8397 459.378 77.1265C459.988 77.3775 460.741 77.5388 461.637 77.6105C462.533 77.6822 463.627 77.7181 464.918 77.7181C467.893 77.7181 470.331 77.7181 472.232 77.7181C474.132 77.6822 475.638 77.5388 476.749 77.2879C477.86 77.0369 478.613 76.6067 479.008 75.9972C479.438 75.3877 479.653 74.4913 479.653 73.3082C479.653 72.2685 479.438 71.4976 479.008 70.9957C478.578 70.4937 477.932 70.1531 477.072 69.9739C476.247 69.7588 475.225 69.6512 474.006 69.6512C472.787 69.6512 471.407 69.6512 469.865 69.6512C467.535 69.6512 465.581 69.6691 464.003 69.705C462.462 69.705 461.225 69.8125 460.293 70.0277C459.36 70.2428 458.697 70.6192 458.303 71.157C457.908 71.6948 457.711 72.4836 457.711 73.5233ZM479.008 59.0567C478.9 58.4114 478.667 57.8915 478.309 57.4971C477.986 57.1027 477.484 56.8159 476.803 56.6366C476.122 56.4574 475.261 56.3498 474.221 56.314C473.182 56.2423 471.927 56.2064 470.457 56.2064C468.162 56.2064 466.262 56.2243 464.756 56.2602C463.25 56.296 462.031 56.4036 461.099 56.5829C460.167 56.7621 459.468 57.0669 459.002 57.4971C458.572 57.8915 458.249 58.4651 458.034 59.218C457.855 59.9709 457.765 60.921 457.765 62.0683C457.765 63.2156 457.747 64.6139 457.711 66.2631C458.177 65.3309 458.733 64.596 459.378 64.0582C460.06 63.5204 460.92 63.126 461.96 62.875C462.999 62.5882 464.254 62.4269 465.724 62.391C467.194 62.3193 468.951 62.2835 470.995 62.2835C474.616 62.2835 477.627 62.3552 480.03 62.4986C482.432 62.642 484.332 63.0543 485.73 63.7355C487.164 64.3808 488.168 65.4206 488.742 66.8547C489.315 68.2529 489.602 70.2069 489.602 72.7166C489.602 74.0073 489.566 75.2442 489.495 76.4274C489.423 77.5747 489.19 78.6323 488.796 79.6004C488.437 80.5684 487.863 81.4289 487.075 82.1818C486.286 82.9347 485.192 83.5442 483.794 84.0103C482.503 84.4405 480.352 84.7273 477.341 84.8707C474.329 85.0141 470.421 85.0858 465.617 85.0858C462.999 85.0858 460.705 84.9962 458.733 84.8169C456.761 84.6018 455.076 84.2433 453.678 83.7414C452.279 83.2036 451.132 82.5044 450.236 81.644C449.34 80.7477 448.676 79.6004 448.246 78.2021C447.959 77.2699 447.762 75.8179 447.654 73.846C447.547 71.8382 447.493 69.3106 447.493 66.2631C447.493 64.3988 447.493 62.7137 447.493 61.2079C447.493 59.7021 447.619 58.3576 447.87 57.1744C448.121 55.9554 448.515 54.8798 449.053 53.9477C449.626 52.9796 450.487 52.1192 451.634 51.3663C453.248 50.3265 455.452 49.6453 458.249 49.3227C461.081 49 464.613 48.8387 468.843 48.8387C472.859 48.8387 476.157 48.9104 478.739 49.0538C481.356 49.1972 483.4 49.5916 484.87 50.2369C486.376 50.8823 487.415 51.9041 487.989 53.3023C488.563 54.6647 488.849 56.5829 488.849 59.0567H479.008Z" fill="white"/>
</svg>
