<svg width="464" height="86" viewBox="0 0 464 86" fill="none" xmlns="http://www.w3.org/2000/svg">
<path d="M136.356 28.1267H156.093C156.81 28.1267 157.455 28.0908 158.029 28.0191C158.639 27.9474 159.158 27.804 159.589 27.5889C160.019 27.3379 160.342 26.9794 160.557 26.5133C160.808 26.0472 160.933 25.4198 160.933 24.631C160.933 23.3762 160.557 22.5515 159.804 22.1572C159.051 21.7628 157.868 21.5656 156.254 21.5656H136.356V28.1267ZM136.356 14.4667H155.071C156.505 14.4667 157.599 14.2695 158.352 13.8752C159.14 13.4808 159.535 12.6024 159.535 11.24C159.535 9.23222 158.477 8.22834 156.362 8.22834H136.356V14.4667ZM125.546 36.1935V0.376574H159.374C163.174 0.376574 165.97 1.09363 167.763 2.52774C169.592 3.926 170.506 6.29229 170.506 9.6266C170.506 11.0966 170.38 12.2976 170.129 13.2298C169.878 14.162 169.484 14.9328 168.946 15.5423C168.444 16.1518 167.799 16.6358 167.01 16.9944C166.221 17.3529 165.271 17.6756 164.16 17.9624C165.343 18.1416 166.419 18.3568 167.387 18.6077C168.355 18.8587 169.161 19.271 169.807 19.8447C170.488 20.3824 171.008 21.1354 171.366 22.1034C171.725 23.0714 171.904 24.3442 171.904 25.9217C171.904 27.8578 171.671 29.4891 171.205 30.8156C170.775 32.1063 170.076 33.164 169.108 33.9886C168.14 34.7773 166.885 35.351 165.343 35.7095C163.837 36.0322 162.027 36.1935 159.911 36.1935H125.546ZM186.536 16.7792C186.536 18.6077 186.554 20.1494 186.59 21.4042C186.662 22.6591 186.805 23.6988 187.02 24.5234C187.271 25.3481 187.63 25.9755 188.096 26.4057C188.598 26.836 189.279 27.1586 190.139 27.3737C191.036 27.5889 192.129 27.7143 193.42 27.7502C194.747 27.7861 196.342 27.804 198.206 27.804C201.935 27.804 204.839 27.7681 206.919 27.6964C208.998 27.5889 210.522 27.2303 211.49 26.6208C212.494 26.0113 213.103 25.0254 213.318 23.663C213.533 22.2647 213.641 20.2928 213.641 17.7473C213.641 15.6678 213.533 14.0365 213.318 12.8534C213.139 11.6344 212.727 10.738 212.081 10.1644C211.436 9.5549 210.486 9.17844 209.231 9.03503C207.976 8.89162 206.309 8.81991 204.23 8.81991C200.465 8.81991 197.418 8.81991 195.087 8.81991C192.757 8.81991 190.964 9.05296 189.709 9.51904C188.454 9.94928 187.612 10.7201 187.182 11.8315C186.751 12.943 186.536 14.5922 186.536 16.7792ZM175.404 21.7269C175.404 18.3209 175.44 15.3989 175.511 12.9609C175.619 10.4871 175.96 8.4076 176.533 6.72252C177.143 5.03744 178.075 3.71089 179.33 2.74286C180.62 1.73898 182.449 1.02193 184.815 0.591691C186.429 0.30487 189.351 0.143533 193.581 0.107678C197.848 0.0359734 203.423 0.000121019 210.307 0.000121019C212.565 0.000121019 214.519 0.197311 216.169 0.591691C217.818 0.986073 219.198 1.6135 220.31 2.47397C221.457 3.29858 222.353 4.39209 222.999 5.7545C223.644 7.1169 224.092 8.76613 224.343 10.7022C224.486 11.7061 224.558 13.0147 224.558 14.6281C224.594 16.2414 224.612 18.1237 224.612 20.2749C224.612 22.8921 224.451 25.115 224.128 26.9435C223.805 28.7362 223.249 30.242 222.461 31.461C221.672 32.68 220.614 33.6301 219.288 34.3113C217.997 34.9925 216.366 35.5123 214.394 35.8709C212.422 36.1935 210.092 36.3907 207.403 36.4624C204.749 36.57 201.648 36.6238 198.099 36.6238C194.083 36.6238 190.641 36.4983 187.773 36.2473C184.905 36.0322 182.557 35.4406 180.728 34.4726C178.9 33.4687 177.555 31.9808 176.695 30.0089C175.834 28.0012 175.404 25.2405 175.404 21.7269ZM252.929 15.1659L264.975 0.376574H278.689L258.576 23.663V36.2473H247.389V23.663L227.007 0.376574H240.775L252.929 15.1659ZM313.931 11.3475C313.895 10.5229 313.752 9.87757 313.501 9.41148C313.25 8.90955 312.801 8.55102 312.156 8.3359C311.547 8.08493 310.722 7.92359 309.682 7.85189C308.678 7.78018 307.37 7.74433 305.756 7.74433C305.47 7.74433 305.236 7.74433 305.057 7.74433C304.878 7.74433 304.645 7.76225 304.358 7.79811C302.028 7.90567 300.074 7.95945 298.496 7.95945C296.919 7.95945 295.646 8.04908 294.678 8.22834C293.71 8.37175 293.011 8.65858 292.58 9.08881C292.15 9.51904 291.935 10.2361 291.935 11.24C291.935 12.1363 292.258 12.8175 292.903 13.2836C293.548 13.7138 294.445 13.9469 295.592 13.9827C297.205 14.0186 298.729 14.0544 300.163 14.0903C301.633 14.1261 302.996 14.1441 304.251 14.1441C305.003 14.1441 305.774 14.1441 306.563 14.1441C307.388 14.1082 308.158 14.0903 308.876 14.0903C311.851 14.0903 314.433 14.1799 316.62 14.3592C318.807 14.5026 320.599 14.9328 321.998 15.6499C323.432 16.3669 324.489 17.4604 325.171 18.9304C325.852 20.4004 326.192 22.4619 326.192 25.115C326.192 26.9794 326.013 28.5569 325.655 29.8476C325.296 31.1383 324.722 32.2139 323.934 33.0743C323.181 33.899 322.213 34.5443 321.03 35.0104C319.846 35.4765 318.43 35.7992 316.781 35.9784C315.813 36.086 313.949 36.2115 311.188 36.3549C308.427 36.4983 304.896 36.57 300.594 36.57C296.363 36.57 292.903 36.4445 290.214 36.1935C287.561 35.9426 285.625 35.3868 284.406 34.5264C283.546 33.9169 282.9 33.2715 282.47 32.5903C282.076 31.8733 281.789 31.1204 281.609 30.3316C281.466 29.5428 281.394 28.7003 281.394 27.804C281.394 26.8718 281.394 25.8679 281.394 24.7923H292.204C292.204 25.1867 292.204 25.599 292.204 26.0293C292.204 26.4595 292.294 26.8539 292.473 27.2124C292.652 27.5351 292.975 27.8398 293.441 28.1267C293.907 28.3776 294.624 28.539 295.592 28.6107C296.058 28.6465 296.919 28.6824 298.173 28.7182C299.464 28.7541 301.078 28.772 303.014 28.772C305.523 28.772 307.567 28.7541 309.144 28.7182C310.758 28.6824 312.013 28.5569 312.909 28.3418C313.805 28.1267 314.415 27.804 314.737 27.3737C315.06 26.9435 315.221 26.3161 315.221 25.4915C315.221 24.7027 315.06 24.0932 314.737 23.663C314.415 23.1969 313.949 22.8742 313.339 22.695C312.73 22.4798 311.995 22.3543 311.134 22.3185C310.31 22.2826 309.395 22.2647 308.392 22.2647C304.878 22.2289 301.759 22.2289 299.034 22.2647C296.309 22.2647 293.943 22.193 291.935 22.0496C289.927 21.9062 288.224 21.6552 286.826 21.2967C285.464 20.9382 284.352 20.3645 283.492 19.5758C282.667 18.787 282.058 17.7473 281.663 16.4566C281.305 15.1659 281.125 13.5346 281.125 11.5627C281.125 9.80587 281.269 8.28212 281.556 6.99142C281.878 5.70072 282.398 4.62513 283.115 3.76467C283.832 2.86835 284.765 2.18714 285.912 1.72106C287.095 1.21912 288.547 0.860588 290.268 0.64547C291.415 0.50206 293.262 0.35865 295.807 0.215238C298.389 0.0718268 301.615 0.000121019 305.487 0.000121019C307.531 0.000121019 309.36 0.0180472 310.973 0.0538995C312.622 0.0538995 314.074 0.125605 315.329 0.269017C316.62 0.412428 317.749 0.627546 318.717 0.914369C319.685 1.16534 320.528 1.55972 321.245 2.09751C322.034 2.67116 322.643 3.28065 323.073 3.926C323.539 4.57136 323.88 5.27048 324.095 6.02339C324.31 6.7763 324.454 7.60092 324.525 8.49724C324.597 9.35771 324.633 10.3078 324.633 11.3475H313.931ZM60.8246 49.3766V85.2473H50.4989V57.9275L34.6879 85.2473H25.9218L10.3259 57.9275V85.2473H0.000259775V49.3766H17.3709L30.5469 73.147L43.5614 49.3766H60.8246ZM102.238 49.3766H113.263V71.9638C113.263 75.4416 112.672 78.1843 111.488 80.1921C110.305 82.1998 108.369 83.6519 105.68 84.5482C104.139 85.0501 102.274 85.3549 100.087 85.4624C97.9001 85.57 95.3905 85.6238 92.5581 85.6238C89.5823 85.6238 86.8754 85.6058 84.4374 85.57C82.0353 85.57 79.8841 85.4624 77.9839 85.2473C76.1196 84.9963 74.4883 84.602 73.09 84.0642C71.7276 83.4905 70.5982 82.6838 69.7019 81.6441C68.8056 80.5685 68.1423 79.2061 67.7121 77.5569C67.2818 75.9077 67.0667 73.864 67.0667 71.4261V49.3766H78.0915V68.1993C78.0915 69.7051 78.1273 70.96 78.199 71.9638C78.3066 72.9319 78.5038 73.7386 78.7906 74.3839C79.0774 75.0293 79.4897 75.5133 80.0275 75.836C80.6012 76.1586 81.3541 76.3917 82.2862 76.5351C83.2184 76.6785 84.3657 76.7681 85.7281 76.804C87.0905 76.804 88.7398 76.804 90.6758 76.804C92.1099 76.804 93.3827 76.804 94.4941 76.804C95.6056 76.804 96.5736 76.7681 97.3982 76.6964C98.2587 76.5889 98.9757 76.4275 99.5494 76.2124C100.159 75.9614 100.661 75.585 101.055 75.083C101.665 74.366 102.005 73.4697 102.077 72.3941C102.185 71.3185 102.238 69.974 102.238 68.3606V49.3766ZM150.886 60.3475C150.85 59.5229 150.707 58.8776 150.456 58.4115C150.205 57.9095 149.757 57.551 149.112 57.3359C148.502 57.0849 147.677 56.9236 146.638 56.8519C145.634 56.7802 144.325 56.7443 142.712 56.7443C142.425 56.7443 142.192 56.7443 142.013 56.7443C141.833 56.7443 141.6 56.7623 141.314 56.7981C138.983 56.9057 137.029 56.9594 135.452 56.9594C133.874 56.9594 132.601 57.0491 131.633 57.2283C130.665 57.3718 129.966 57.6586 129.536 58.0888C129.106 58.519 128.891 59.2361 128.891 60.24C128.891 61.1363 129.213 61.8175 129.859 62.2836C130.504 62.7138 131.4 62.9469 132.548 62.9827C134.161 63.0186 135.685 63.0544 137.119 63.0903C138.589 63.1261 139.951 63.1441 141.206 63.1441C141.959 63.1441 142.73 63.1441 143.519 63.1441C144.343 63.1082 145.114 63.0903 145.831 63.0903C148.807 63.0903 151.388 63.1799 153.575 63.3592C155.762 63.5026 157.555 63.9328 158.953 64.6499C160.387 65.3669 161.445 66.4604 162.126 67.9304C162.807 69.4004 163.148 71.4619 163.148 74.115C163.148 75.9794 162.969 77.5569 162.61 78.8476C162.252 80.1383 161.678 81.2139 160.889 82.0743C160.136 82.899 159.168 83.5443 157.985 84.0104C156.802 84.4765 155.386 84.7992 153.737 84.9784C152.769 85.086 150.904 85.2115 148.144 85.3549C145.383 85.4983 141.851 85.57 137.549 85.57C133.318 85.57 129.859 85.4445 127.17 85.1935C124.517 84.9426 122.58 84.3868 121.361 83.5264C120.501 82.9169 119.856 82.2715 119.425 81.5903C119.031 80.8733 118.744 80.1204 118.565 79.3316C118.422 78.5428 118.35 77.7003 118.35 76.804C118.35 75.8718 118.35 74.8679 118.35 73.7923H129.159C129.159 74.1867 129.159 74.599 129.159 75.0293C129.159 75.4595 129.249 75.8539 129.428 76.2124C129.608 76.5351 129.93 76.8398 130.396 77.1267C130.862 77.3776 131.58 77.539 132.548 77.6107C133.014 77.6465 133.874 77.6824 135.129 77.7182C136.42 77.7541 138.033 77.772 139.969 77.772C142.479 77.772 144.522 77.7541 146.1 77.7182C147.713 77.6824 148.968 77.5569 149.864 77.3418C150.761 77.1267 151.37 76.804 151.693 76.3737C152.016 75.9435 152.177 75.3161 152.177 74.4915C152.177 73.7027 152.016 73.0932 151.693 72.663C151.37 72.1969 150.904 71.8742 150.295 71.695C149.685 71.4798 148.95 71.3543 148.09 71.3185C147.265 71.2826 146.351 71.2647 145.347 71.2647C141.833 71.2289 138.714 71.2289 135.989 71.2647C133.265 71.2647 130.898 71.193 128.891 71.0496C126.883 70.9062 125.18 70.6552 123.782 70.2967C122.419 69.9382 121.308 69.3645 120.447 68.5758C119.623 67.787 119.013 66.7473 118.619 65.4566C118.26 64.1659 118.081 62.5346 118.081 60.5627C118.081 58.8059 118.224 57.2821 118.511 55.9914C118.834 54.7007 119.354 53.6251 120.071 52.7647C120.788 51.8683 121.72 51.1871 122.867 50.7211C124.05 50.2191 125.502 49.8606 127.223 49.6455C128.371 49.5021 130.217 49.3586 132.763 49.2152C135.344 49.0718 138.571 49.0001 142.443 49.0001C144.487 49.0001 146.315 49.018 147.928 49.0539C149.578 49.0539 151.03 49.1256 152.285 49.269C153.575 49.4124 154.705 49.6275 155.673 49.9144C156.641 50.1653 157.483 50.5597 158.2 51.0975C158.989 51.6712 159.598 52.2807 160.029 52.926C160.495 53.5714 160.835 54.2705 161.051 55.0234C161.266 55.7763 161.409 56.6009 161.481 57.4972C161.552 58.3577 161.588 59.3078 161.588 60.3475H150.886ZM178.822 49.3766V85.2473H167.798V49.3766H178.822ZM218.473 62.0147C218.437 60.9033 218.276 60.0607 217.989 59.4871C217.702 58.9134 217.165 58.5011 216.376 58.2501C215.587 57.9992 214.458 57.8737 212.988 57.8737C211.554 57.8378 209.654 57.8199 207.287 57.8199C204.598 57.8199 202.429 57.8558 200.78 57.9275C199.131 57.9633 197.84 58.2143 196.908 58.6804C195.976 59.1465 195.348 59.9352 195.026 61.0467C194.703 62.1223 194.542 63.6998 194.542 65.7792C194.542 68.4323 194.613 70.4939 194.757 71.9638C194.936 73.398 195.42 74.4735 196.209 75.1906C197.033 75.8718 198.288 76.2841 199.973 76.4275C201.658 76.5351 204.007 76.5889 207.018 76.5889C209.277 76.5889 211.159 76.5889 212.665 76.5889C214.171 76.5889 215.354 76.4454 216.215 76.1586C217.111 75.8718 217.738 75.3878 218.097 74.7066C218.491 73.9895 218.688 72.9319 218.688 71.5336H229.444C229.444 71.8204 229.444 72.0893 229.444 72.3403C229.48 72.5554 229.498 72.8064 229.498 73.0932C229.498 74.9217 229.373 76.5351 229.122 77.9333C228.906 79.3316 228.512 80.5147 227.938 81.4828C227.365 82.4508 226.594 83.2216 225.626 83.7953C224.658 84.3689 223.457 84.7274 222.023 84.8709C219.692 85.1218 217.487 85.3011 215.408 85.4087C213.364 85.5521 211.482 85.6238 209.761 85.6238C204.132 85.6238 198.88 85.4624 194.004 85.1398C192.104 85.0322 190.49 84.6199 189.164 83.9028C187.837 83.1858 186.761 82.146 185.937 80.7836C185.112 79.3854 184.503 77.6465 184.108 75.5671C183.75 73.4876 183.571 70.9958 183.571 68.0917C183.571 66.2633 183.589 64.5961 183.624 63.0903C183.66 61.5486 183.786 60.1503 184.001 58.8955C184.252 57.6048 184.61 56.4396 185.076 55.3998C185.578 54.3243 186.277 53.3562 187.174 52.4958C188.07 51.6353 189.11 50.972 190.293 50.5059C191.512 50.0399 192.928 49.6993 194.542 49.4841C196.155 49.269 197.983 49.1435 200.027 49.1077C202.071 49.036 204.365 49.0001 206.911 49.0001C211.321 49.0001 214.942 49.0898 217.774 49.269C220.642 49.4483 222.901 49.9502 224.55 50.7748C226.2 51.5994 227.347 52.8902 227.992 54.6469C228.638 56.4037 228.978 58.8596 229.014 62.0147H218.473ZM296.337 49.3766L276.331 85.2473H262.402L243.472 49.3766H255.465L269.501 76.4275L284.183 49.3766H296.337ZM311.275 49.3766V85.2473H300.25V49.3766H311.275ZM328.553 76.5351H346.946C348.524 76.5351 349.814 76.4275 350.818 76.2124C351.822 75.9973 352.611 75.5671 353.184 74.9217C353.758 74.2405 354.152 73.2904 354.368 72.0714C354.583 70.8166 354.69 69.1673 354.69 67.1237C354.69 65.582 354.618 64.2376 354.475 63.0903C354.332 61.943 354.027 61.0108 353.561 60.2938C353.095 59.5767 352.449 59.0389 351.625 58.6804C350.8 58.3219 349.707 58.1426 348.344 58.1426H328.553V76.5351ZM317.529 85.2473V49.4304H349.258C350.227 49.4304 351.374 49.4841 352.7 49.5917C354.063 49.6993 355.587 49.8427 357.272 50.0219C359.853 50.2729 361.897 51.6532 363.402 54.1629C364.908 56.6368 365.661 60.2221 365.661 64.9188C365.661 66.0302 365.625 67.4105 365.554 69.0598C365.518 70.709 365.464 72.6092 365.392 74.7604C365.249 78.023 364.102 80.5864 361.95 82.4508C359.835 84.3151 356.949 85.2473 353.292 85.2473H317.529ZM369.82 85.2473V49.3766H409.832V57.4435H380.629V63.6818H407.895V70.7807H380.629V77.1804H409.832V85.2473H369.82ZM425.26 65.7792C425.26 67.6077 425.278 69.1494 425.314 70.4042C425.386 71.6591 425.529 72.6988 425.744 73.5234C425.995 74.3481 426.354 74.9755 426.82 75.4057C427.322 75.836 428.003 76.1586 428.863 76.3737C429.76 76.5889 430.853 76.7143 432.144 76.7502C433.471 76.7861 435.066 76.804 436.93 76.804C440.659 76.804 443.563 76.7681 445.643 76.6964C447.722 76.5889 449.246 76.2303 450.214 75.6208C451.218 75.0113 451.827 74.0254 452.042 72.663C452.257 71.2647 452.365 69.2928 452.365 66.7473C452.365 64.6678 452.257 63.0365 452.042 61.8534C451.863 60.6344 451.451 59.738 450.805 59.1644C450.16 58.5549 449.21 58.1784 447.955 58.035C446.7 57.8916 445.033 57.8199 442.954 57.8199C439.189 57.8199 436.142 57.8199 433.811 57.8199C431.481 57.8199 429.688 58.053 428.433 58.519C427.178 58.9493 426.336 59.7201 425.906 60.8315C425.475 61.943 425.26 63.5922 425.26 65.7792ZM414.128 70.7269C414.128 67.3209 414.164 64.3989 414.236 61.9609C414.343 59.4871 414.684 57.4076 415.257 55.7225C415.867 54.0374 416.799 52.7109 418.054 51.7429C419.345 50.739 421.173 50.0219 423.539 49.5917C425.153 49.3049 428.075 49.1435 432.305 49.1077C436.572 49.036 442.147 49.0001 449.031 49.0001C451.289 49.0001 453.243 49.1973 454.893 49.5917C456.542 49.9861 457.922 50.6135 459.034 51.474C460.181 52.2986 461.077 53.3921 461.723 54.7545C462.368 56.1169 462.816 57.7661 463.067 59.7022C463.21 60.7061 463.282 62.0147 463.282 63.6281C463.318 65.2414 463.336 67.1237 463.336 69.2749C463.336 71.8921 463.175 74.115 462.852 75.9435C462.529 77.7362 461.974 79.242 461.185 80.461C460.396 81.68 459.338 82.6301 458.012 83.3113C456.721 83.9925 455.09 84.5123 453.118 84.8709C451.146 85.1935 448.816 85.3907 446.127 85.4624C443.473 85.57 440.372 85.6238 436.823 85.6238C432.807 85.6238 429.365 85.4983 426.497 85.2473C423.629 85.0322 421.281 84.4406 419.452 83.4726C417.624 82.4687 416.279 80.9808 415.419 79.0089C414.558 77.0012 414.128 74.2405 414.128 70.7269Z" fill="white"/>
</svg>
