<svg width="250" height="31" viewBox="0 0 250 31" fill="none" xmlns="http://www.w3.org/2000/svg">
<path d="M33.1239 0.252001L20.7462 22.4149L12.1374 22.4099L0.450349 0.232958L7.86255 0.237278L16.5281 16.9613L25.6119 0.247623L33.1239 0.252001ZM42.3564 0.257382L42.3435 22.4275L35.5296 22.4235L35.5425 0.25341L42.3564 0.257382ZM45.7434 22.4295L45.7563 0.259363L70.4858 0.273776L70.4829 5.25956L52.4344 5.24904L52.4321 9.10472L69.2841 9.11454L69.2815 13.502L52.4296 13.4922L52.4273 17.4476L70.4758 17.4581L70.4729 22.4439L45.7434 22.4295ZM118.977 0.302038L109.824 22.4668L100.65 22.4615L95.7397 6.73678L90.6118 22.4556L81.5377 22.4503L72.543 0.274975L79.4898 0.279024L85.9283 17.1015L91.7549 0.286172L99.8983 0.290918L105.406 17.1128L112.097 0.298028L118.977 0.302038ZM149.305 8.13078C149.284 7.44384 149.184 6.92304 149.007 6.56839C148.83 6.21374 148.498 5.95872 148.011 5.80332C147.523 5.64793 146.825 5.56996 145.917 5.56943C145.03 5.54676 143.856 5.53499 142.393 5.53414C140.731 5.53317 139.391 5.55455 138.371 5.59828C137.352 5.61984 136.554 5.77449 135.978 6.06222C135.402 6.34995 135.014 6.83722 134.814 7.52404C134.614 8.18869 134.514 9.16363 134.513 10.4489C134.512 12.0886 134.556 13.3628 134.644 14.2714C134.754 15.1578 135.053 15.8227 135.54 16.2662C136.049 16.6875 136.825 16.9428 137.866 17.0321C138.908 17.0991 140.359 17.1332 142.22 17.1343C143.616 17.1351 144.78 17.1358 145.71 17.1363C146.641 17.1369 147.372 17.0487 147.904 16.8717C148.458 16.6948 148.846 16.3958 149.068 15.9749C149.312 15.5319 149.434 14.8783 149.435 14.0141L156.083 14.018C156.083 14.1952 156.083 14.3614 156.082 14.5165C156.105 14.6495 156.115 14.8046 156.115 14.9819C156.115 16.112 156.037 17.1091 155.881 17.9732C155.748 18.8374 155.503 19.5685 155.148 20.1665C154.794 20.7646 154.317 21.2408 153.718 21.595C153.12 21.9492 152.377 22.1703 151.491 22.2584C150.051 22.4127 148.688 22.5227 147.402 22.5885C146.139 22.6764 144.976 22.72 143.912 22.7194C140.433 22.7173 137.187 22.6157 134.174 22.4145C132.999 22.3474 132.002 22.092 131.183 21.6483C130.363 21.2047 129.699 20.5617 129.189 19.7193C128.68 18.8548 128.304 17.7799 128.061 16.4945C127.84 15.2092 127.73 13.669 127.731 11.8742C127.732 10.7441 127.744 9.71366 127.767 8.783C127.789 7.83017 127.867 6.96601 128.001 6.19053C128.156 5.39289 128.378 4.67285 128.667 4.03041C128.977 3.36582 129.41 2.76777 129.964 2.23628C130.518 1.70479 131.161 1.29522 131.893 1.00758C132.646 0.719947 133.522 0.509947 134.519 0.377574C135.516 0.245201 136.646 0.168303 137.909 0.146879C139.172 0.103298 140.591 0.0819654 142.164 0.0828824C144.889 0.0844709 147.127 0.141173 148.878 0.252988C150.651 0.364816 152.046 0.675857 153.065 1.18611C154.085 1.69636 154.793 2.4945 155.191 3.58053C155.59 4.66655 155.799 6.18457 155.82 8.13458L149.305 8.13078ZM179.021 13.8984L174.306 5.12064L169.515 13.8928L179.021 13.8984ZM181.478 18.4867L167.152 18.4784L164.956 22.499L157.444 22.4946L169.822 0.331671L178.929 0.336979L191.015 22.5142L183.57 22.5098L181.478 18.4867ZM212.832 7.13741C212.81 6.62774 212.722 6.22882 212.567 5.94067C212.412 5.63035 212.135 5.4086 211.736 5.27541C211.36 5.12008 210.85 5.02006 210.208 4.97537C209.587 4.93069 208.778 4.90806 207.781 4.90748C207.604 4.90738 207.46 4.90729 207.349 4.90723C207.238 4.90716 207.094 4.91816 206.917 4.94021C205.477 5.00585 204.269 5.03839 203.294 5.03782C202.319 5.03725 201.532 5.09219 200.934 5.20264C200.336 5.29092 199.903 5.46794 199.637 5.7337C199.371 5.99945 199.238 6.44255 199.238 7.06301C199.237 7.61698 199.437 8.03812 199.835 8.32642C200.234 8.59256 200.788 8.73692 201.497 8.75949C202.494 8.78223 203.436 8.80494 204.322 8.82762C205.231 8.8503 206.073 8.86187 206.848 8.86233C207.314 8.8626 207.79 8.86288 208.278 8.86316C208.787 8.8413 209.264 8.8305 209.707 8.83075C211.546 8.83183 213.141 8.88815 214.493 8.99974C215.845 9.08916 216.953 9.35571 217.816 9.7994C218.703 10.2431 219.356 10.9193 219.776 11.8281C220.197 12.7369 220.407 14.0111 220.406 15.6509C220.405 16.8032 220.294 17.7781 220.072 18.5757C219.85 19.3733 219.495 20.0379 219.007 20.5694C218.541 21.0788 217.943 21.4773 217.211 21.7649C216.48 22.0526 215.604 22.2515 214.585 22.3617C213.987 22.4278 212.834 22.5047 211.128 22.5924C209.422 22.68 207.239 22.723 204.58 22.7215C201.965 22.72 199.827 22.6412 198.165 22.4851C196.525 22.329 195.329 21.9848 194.576 21.4526C194.044 21.0756 193.646 20.6765 193.38 20.2553C193.137 19.812 192.96 19.3465 192.849 18.859C192.761 18.3714 192.717 17.8507 192.717 17.2967C192.717 16.7206 192.718 16.1001 192.718 15.4353L199.399 15.4392C199.399 15.683 199.399 15.9378 199.399 16.2037C199.398 16.4696 199.454 16.7134 199.564 16.9351C199.675 17.1346 199.874 17.323 200.162 17.5005C200.45 17.6557 200.893 17.7557 201.492 17.8004C201.78 17.8227 202.312 17.8452 203.087 17.8678C203.885 17.8904 204.882 17.9021 206.079 17.9028C207.63 17.9037 208.893 17.8933 209.868 17.8717C210.865 17.8502 211.641 17.7731 212.195 17.6404C212.749 17.5078 213.125 17.3086 213.325 17.0428C213.525 16.777 213.625 16.3893 213.625 15.8796C213.625 15.3921 213.526 15.0154 213.326 14.7493C213.127 14.4611 212.839 14.2615 212.463 14.1505C212.086 14.0174 211.632 13.9395 211.1 13.9171C210.59 13.8946 210.025 13.8832 209.405 13.8828C207.233 13.8594 205.305 13.8583 203.621 13.8795C201.937 13.8785 200.475 13.8333 199.234 13.744C197.993 13.6546 196.94 13.4989 196.076 13.2768C195.235 13.0547 194.548 12.6998 194.016 12.2119C193.507 11.7241 193.131 11.0813 192.887 10.2834C192.666 9.48559 192.556 8.47729 192.557 7.25855C192.557 6.17275 192.646 5.23104 192.824 4.43342C193.024 3.63581 193.346 2.97123 193.789 2.43967C194.233 1.88595 194.809 1.46527 195.518 1.17761C196.25 0.867813 197.147 0.646745 198.211 0.51441C198.92 0.426188 200.062 0.338217 201.635 0.250498C203.23 0.162791 205.225 0.119635 207.618 0.12103C208.881 0.121766 210.011 0.133504 211.008 0.156244C212.028 0.156838 212.925 0.20168 213.7 0.290768C214.498 0.379869 215.196 0.513231 215.794 0.690852C216.392 0.846313 216.913 1.09037 217.356 1.42301C217.843 1.77784 218.22 2.15476 218.485 2.55378C218.773 2.95281 218.984 3.38503 219.116 3.85045C219.249 4.31587 219.337 4.82558 219.381 5.37958C219.425 5.91142 219.447 6.49865 219.447 7.14126L212.832 7.13741ZM222.81 22.5327L222.823 0.362561L247.553 0.376974L247.55 5.36276L229.501 5.35224L229.499 9.20791L246.351 9.21774L246.348 13.6052L229.496 13.5954L229.494 17.5508L247.543 17.5613L247.54 22.5471L222.81 22.5327Z" fill="#FF0000"/>
<path d="M0.00193678 28.2196L249.165 28.3648L249.164 30.8577L0.000483868 30.7125L0.00193678 28.2196Z" fill="#FF0000"/>
</svg>
