<svg width="437" height="91" viewBox="0 0 437 91" fill="none" xmlns="http://www.w3.org/2000/svg">
<path d="M51.0275 27.5354H69.4203C70.9978 27.5354 72.2885 27.4278 73.2924 27.2127C74.2963 26.9976 75.0851 26.5673 75.6587 25.922C76.2324 25.2407 76.6268 24.2906 76.8419 23.0716C77.057 21.8167 77.1646 20.1675 77.1646 18.1239C77.1646 16.5822 77.0929 15.2377 76.9495 14.0904C76.806 12.943 76.5013 12.0109 76.0352 11.2938C75.5691 10.5767 74.9237 10.0389 74.0991 9.68039C73.2745 9.32186 72.181 9.14259 70.8185 9.14259H51.0275V27.5354ZM40.0026 36.2477V0.430232H71.7328C72.7008 0.430232 73.8481 0.484011 75.1747 0.591569C76.5371 0.69913 78.0609 0.842544 79.746 1.02181C82.3275 1.27278 84.3711 2.65314 85.8769 5.16287C87.3828 7.63675 88.1357 11.2221 88.1357 15.9189C88.1357 17.0303 88.0998 18.4107 88.0281 20.0599C87.9923 21.7092 87.9385 23.6094 87.8668 25.7606C87.7234 29.0233 86.5761 31.5868 84.4249 33.4512C82.3095 35.3155 79.4233 36.2477 75.7663 36.2477H40.0026ZM117.087 0.376449H128.112V21.6733C128.112 24.8284 127.861 27.3919 127.359 29.3639C126.857 31.3 125.907 32.8237 124.509 33.9352C123.11 35.0108 121.138 35.7458 118.593 36.1402C116.083 36.4987 112.803 36.678 108.751 36.678C105.524 36.678 102.781 36.5345 100.523 36.2477C98.264 35.9967 96.4175 35.441 94.9834 34.5805C93.5851 33.7201 92.5633 32.4831 91.9179 30.8697C91.3084 29.2205 91.0037 27.0513 91.0037 24.3623C91.0037 23.8245 91.0037 23.2509 91.0037 22.6414C91.0395 22.0319 91.0754 21.4582 91.1112 20.9204H101.652C101.652 21.0997 101.634 21.261 101.598 21.4044C101.598 21.512 101.598 21.6554 101.598 21.8347C101.598 22.9461 101.634 23.8962 101.706 24.685C101.778 25.4379 102.047 26.0474 102.513 26.5135C102.979 26.9796 103.714 27.3202 104.718 27.5354C105.721 27.7505 107.156 27.858 109.02 27.858C110.777 27.858 112.193 27.8222 113.269 27.7505C114.344 27.6788 115.151 27.4457 115.689 27.0513C116.262 26.6569 116.639 26.0474 116.818 25.2228C116.997 24.3623 117.087 23.1792 117.087 21.6733V0.376449ZM177.498 11.3476C177.462 10.5229 177.319 9.87758 177.068 9.41149C176.817 8.90954 176.369 8.55101 175.724 8.33589C175.114 8.08492 174.289 7.92358 173.25 7.85187C172.246 7.78016 170.937 7.74431 169.324 7.74431C169.037 7.74431 168.804 7.74431 168.625 7.74431C168.445 7.74431 168.212 7.76224 167.925 7.79809C165.595 7.90565 163.641 7.95943 162.063 7.95943C160.486 7.95943 159.213 8.04906 158.245 8.22833C157.277 8.37174 156.578 8.65857 156.148 9.08881C155.717 9.51905 155.502 10.2361 155.502 11.24C155.502 12.1363 155.825 12.8176 156.47 13.2837C157.116 13.7139 158.012 13.9469 159.159 13.9828C160.773 14.0186 162.297 14.0545 163.731 14.0904C165.201 14.1262 166.563 14.1441 167.818 14.1441C168.571 14.1441 169.342 14.1441 170.13 14.1441C170.955 14.1083 171.726 14.0904 172.443 14.0904C175.419 14.0904 178 14.18 180.187 14.3593C182.374 14.5027 184.167 14.9329 185.565 15.65C186.999 16.367 188.057 17.4606 188.738 18.9306C189.42 20.4005 189.76 22.4621 189.76 25.1153C189.76 26.9796 189.581 28.5572 189.222 29.8479C188.864 31.1386 188.29 32.2142 187.501 33.0747C186.748 33.8993 185.78 34.5447 184.597 35.0108C183.414 35.4769 181.998 35.7995 180.349 35.9788C179.381 36.0864 177.516 36.2119 174.756 36.3553C171.995 36.4987 168.463 36.5704 164.161 36.5704C159.93 36.5704 156.47 36.4449 153.781 36.1939C151.128 35.943 149.192 35.3872 147.973 34.5268C147.113 33.9172 146.467 33.2719 146.037 32.5907C145.643 31.8736 145.356 31.1207 145.177 30.3319C145.033 29.5431 144.961 28.7006 144.961 27.8043C144.961 26.8721 144.961 25.8682 144.961 24.7926H155.771C155.771 25.187 155.771 25.5993 155.771 26.0295C155.771 26.4598 155.861 26.8541 156.04 27.2127C156.219 27.5354 156.542 27.8401 157.008 28.1269C157.474 28.3779 158.191 28.5392 159.159 28.611C159.625 28.6468 160.486 28.6827 161.741 28.7185C163.031 28.7544 164.645 28.7723 166.581 28.7723C169.091 28.7723 171.134 28.7544 172.712 28.7185C174.325 28.6827 175.58 28.5572 176.476 28.3421C177.373 28.1269 177.982 27.8043 178.305 27.374C178.628 26.9438 178.789 26.3163 178.789 25.4917C178.789 24.7029 178.628 24.0934 178.305 23.6632C177.982 23.1971 177.516 22.8744 176.907 22.6952C176.297 22.48 175.562 22.3545 174.702 22.3187C173.877 22.2828 172.963 22.2649 171.959 22.2649C168.445 22.2291 165.326 22.2291 162.601 22.2649C159.876 22.2649 157.51 22.1932 155.502 22.0498C153.495 21.9064 151.791 21.6554 150.393 21.2969C149.031 20.9383 147.919 20.3647 147.059 19.5759C146.234 18.7871 145.625 17.7474 145.23 16.4567C144.872 15.166 144.693 13.5346 144.693 11.5627C144.693 9.80588 144.836 8.28211 145.123 6.99139C145.445 5.70067 145.965 4.62507 146.682 3.76459C147.399 2.86826 148.332 2.18704 149.479 1.72095C150.662 1.219 152.114 0.86047 153.835 0.645349C154.982 0.501937 156.829 0.358525 159.374 0.215111C161.956 0.0716975 165.183 -9.32911e-06 169.055 -9.32911e-06C171.098 -9.32911e-06 172.927 0.0179171 174.54 0.05377C176.19 0.05377 177.642 0.125477 178.897 0.26889C180.187 0.412304 181.317 0.627424 182.285 0.914252C183.253 1.16522 184.095 1.55961 184.812 2.09741C185.601 2.67106 186.211 3.28057 186.641 3.92593C187.107 4.57129 187.448 5.27043 187.663 6.02335C187.878 6.77627 188.021 7.6009 188.093 8.49723C188.165 9.35771 188.201 10.3078 188.201 11.3476H177.498ZM243.672 0.376449V36.2477H226.302L204.736 9.30393V36.2477H194.41V0.376449H211.781L233.347 27.2665V0.376449H243.672ZM282.405 22.3187L274.768 8.12077L267.024 22.3187H282.405ZM286.385 29.7403H263.206L259.656 36.2477H247.502L267.508 0.376449H282.244L301.82 36.2477H289.773L286.385 29.7403ZM316.615 0.376449V13.8752H322.262L337.051 0.376449H352.11L331.566 18.1239L354.315 36.2477H338.342L322.262 22.5876H316.615V36.2477H305.805V0.376449H316.615ZM355.785 36.2477V0.376449H395.797V8.44345H366.595V14.6819H393.861V21.7809H366.595V28.1807H395.797V36.2477H355.785ZM34.9032 67.0148C34.8673 65.9033 34.706 65.0607 34.4191 64.4871C34.1323 63.9134 33.5945 63.5011 32.8057 63.2501C32.017 62.9992 30.8876 62.8737 29.4176 62.8737C27.9835 62.8378 26.0832 62.8199 23.7169 62.8199C21.0279 62.8199 18.8588 62.8558 17.2095 62.9275C15.5603 62.9633 14.2696 63.2143 13.3374 63.6804C12.4052 64.1465 11.7778 64.9353 11.4551 66.0467C11.1324 67.1223 10.9711 68.6999 10.9711 70.7794C10.9711 73.4325 11.0428 75.4941 11.1862 76.9641C11.3655 78.3982 11.8495 79.4738 12.6382 80.1909C13.4629 80.8721 14.7177 81.2844 16.4028 81.4278C18.088 81.5354 20.4363 81.5891 23.448 81.5891C25.7068 81.5891 27.5891 81.5891 29.0949 81.5891C30.6008 81.5891 31.7839 81.4457 32.6444 81.1589C33.5407 80.8721 34.1682 80.388 34.5267 79.7068C34.9211 78.9898 35.1183 77.9321 35.1183 76.5338H45.8743C45.8743 76.8206 45.8743 77.0895 45.8743 77.3405C45.9101 77.5556 45.9281 77.8066 45.9281 78.0934C45.9281 79.922 45.8026 81.5354 45.5516 82.9336C45.3365 84.3319 44.9421 85.5151 44.3684 86.4831C43.7948 87.4512 43.0239 88.222 42.0559 88.7957C41.0879 89.3693 39.8868 89.7278 38.4526 89.8713C36.1222 90.1222 33.9172 90.3015 31.8377 90.4091C29.7941 90.5525 27.9118 90.6242 26.1908 90.6242C20.5618 90.6242 15.3093 90.4628 10.4333 90.1402C8.53304 90.0326 6.91964 89.6203 5.59306 88.9032C4.26649 88.1861 3.19089 87.1464 2.36626 85.784C1.54164 84.3857 0.93213 82.6468 0.537744 80.5673C0.17921 78.4878 -5.6293e-05 75.996 -5.6293e-05 73.0919C-5.6293e-05 71.2634 0.0178704 69.5962 0.0537237 68.0904C0.089577 66.5487 0.215064 65.1504 0.430184 63.8955C0.681157 62.6048 1.03969 61.4396 1.50578 60.3998C2.00773 59.3242 2.70687 58.3562 3.6032 57.4957C4.49954 56.6352 5.53928 55.9719 6.72244 55.5058C7.94146 55.0397 9.35766 54.6991 10.9711 54.484C12.5845 54.2689 14.413 54.1434 16.4566 54.1075C18.5003 54.0358 20.7949 54 23.3405 54C27.7504 54 31.3716 54.0896 34.204 54.2689C37.0723 54.4482 39.3311 54.9501 40.9803 55.7747C42.6296 56.5994 43.7769 57.8901 44.4222 59.6469C45.0676 61.4037 45.4082 63.8597 45.444 67.0148H34.9032ZM60.1856 70.7794C60.1856 72.6079 60.2036 74.1496 60.2394 75.4044C60.3111 76.6593 60.4545 77.699 60.6697 78.5237C60.9206 79.3483 61.2792 79.9757 61.7453 80.406C62.2472 80.8362 62.9284 81.1589 63.7889 81.374C64.6852 81.5891 65.7788 81.7146 67.0695 81.7505C68.3961 81.7863 69.9915 81.8043 71.8559 81.8043C75.5846 81.8043 78.4888 81.7684 80.5683 81.6967C82.6478 81.5891 84.1715 81.2306 85.1396 80.6211C86.1435 80.0116 86.753 79.0256 86.9681 77.6632C87.1832 76.2649 87.2908 74.293 87.2908 71.7474C87.2908 69.6679 87.1832 68.0366 86.9681 66.8534C86.7888 65.6344 86.3765 64.7381 85.7311 64.1644C85.0858 63.5549 84.1357 63.1784 82.8808 63.035C81.6259 62.8916 79.9588 62.8199 77.8793 62.8199C74.1147 62.8199 71.0671 62.8199 68.7367 62.8199C66.4062 62.8199 64.6135 63.053 63.3587 63.5191C62.1038 63.9493 61.2612 64.7201 60.831 65.8316C60.4008 66.943 60.1856 68.5923 60.1856 70.7794ZM49.0532 75.7271C49.0532 72.321 49.089 69.399 49.1607 66.961C49.2683 64.4871 49.6089 62.4076 50.1826 60.7225C50.7921 59.0374 51.7243 57.7108 52.9791 56.7428C54.2698 55.7389 56.0984 55.0218 58.4647 54.5916C60.0781 54.3047 63.0001 54.1434 67.2308 54.1075C71.4974 54.0358 77.0726 54 83.9564 54C86.2152 54 88.1692 54.1972 89.8184 54.5916C91.4677 54.986 92.848 55.6134 93.9595 56.4739C95.1068 57.2985 96.0031 58.392 96.6485 59.7545C97.2938 61.1169 97.742 62.7661 97.993 64.7022C98.1364 65.7061 98.2081 67.0148 98.2081 68.6282C98.244 70.2416 98.2619 72.1239 98.2619 74.2751C98.2619 76.8923 98.1005 79.1153 97.7779 80.9438C97.4552 82.7364 96.8995 84.2423 96.1107 85.4613C95.3219 86.6803 94.2642 87.6304 92.9377 88.3116C91.6469 88.9928 90.0156 89.5127 88.0437 89.8713C86.0717 90.1939 83.7413 90.3911 81.0523 90.4628C78.3991 90.5704 75.2978 90.6242 71.7483 90.6242C67.7328 90.6242 64.2908 90.4987 61.4226 90.2477C58.5543 90.0326 56.2059 89.441 54.3774 88.473C52.5489 87.4691 51.2044 85.9812 50.3439 84.0092C49.4834 82.0014 49.0532 79.2407 49.0532 75.7271ZM135.56 76.3187L127.924 62.1208L120.179 76.3187H135.56ZM139.54 83.7403H116.361L112.811 90.2477H100.657L120.663 54.3764H135.399L154.975 90.2477H142.928L139.54 83.7403ZM192.304 67.0148C192.268 65.9033 192.107 65.0607 191.82 64.4871C191.533 63.9134 190.996 63.5011 190.207 63.2501C189.418 62.9992 188.289 62.8737 186.819 62.8737C185.385 62.8378 183.484 62.8199 181.118 62.8199C178.429 62.8199 176.26 62.8558 174.611 62.9275C172.961 62.9633 171.671 63.2143 170.738 63.6804C169.806 64.1465 169.179 64.9353 168.856 66.0467C168.533 67.1223 168.372 68.6999 168.372 70.7794C168.372 73.4325 168.444 75.4941 168.587 76.9641C168.766 78.3982 169.251 79.4738 170.039 80.1909C170.864 80.8721 172.119 81.2844 173.804 81.4278C175.489 81.5354 177.837 81.5891 180.849 81.5891C183.108 81.5891 184.99 81.5891 186.496 81.5891C188.002 81.5891 189.185 81.4457 190.045 81.1589C190.942 80.8721 191.569 80.388 191.928 79.7068C192.322 78.9898 192.519 77.9321 192.519 76.5338H203.275C203.275 76.8206 203.275 77.0895 203.275 77.3405C203.311 77.5556 203.329 77.8066 203.329 78.0934C203.329 79.922 203.204 81.5354 202.953 82.9336C202.738 84.3319 202.343 85.5151 201.769 86.4831C201.196 87.4512 200.425 88.222 199.457 88.7957C198.489 89.3693 197.288 89.7278 195.854 89.8713C193.523 90.1222 191.318 90.3015 189.239 90.4091C187.195 90.5525 185.313 90.6242 183.592 90.6242C177.963 90.6242 172.71 90.4628 167.834 90.1402C165.934 90.0326 164.321 89.6203 162.994 88.9032C161.668 88.1861 160.592 87.1464 159.767 85.784C158.943 84.3857 158.333 82.6468 157.939 80.5673C157.58 78.4878 157.401 75.996 157.401 73.0919C157.401 71.2634 157.419 69.5962 157.455 68.0904C157.491 66.5487 157.616 65.1504 157.831 63.8955C158.082 62.6048 158.441 61.4396 158.907 60.3998C159.409 59.3242 160.108 58.3562 161.004 57.4957C161.901 56.6352 162.94 55.9719 164.123 55.5058C165.342 55.0397 166.759 54.6991 168.372 54.484C169.985 54.2689 171.814 54.1434 173.858 54.1075C175.901 54.0358 178.196 54 180.741 54C185.151 54 188.773 54.0896 191.605 54.2689C194.473 54.4482 196.732 54.9501 198.381 55.7747C200.031 56.5994 201.178 57.8901 201.823 59.6469C202.469 61.4037 202.809 63.8597 202.845 67.0148H192.304ZM243.67 67.2837V54.3764H254.695V90.2477H243.67V76.5876H218.985V90.2477H207.96V54.3764H218.985V67.2837H243.67ZM260.252 90.2477V54.3764H300.264V62.4435H271.062V68.6819H298.328V75.7809H271.062V82.1807H300.264V90.2477H260.252ZM317.091 54.3764V81.3202H341.776V90.2477H306.067V54.3764H317.091ZM356.218 54.3764V81.3202H380.904V90.2477H345.194V54.3764H356.218ZM416.75 76.3187L409.113 62.1208L401.369 76.3187H416.75ZM420.73 83.7403H397.551L394.001 90.2477H381.847L401.853 54.3764H416.589L436.165 90.2477H424.118L420.73 83.7403Z" fill="white"/>
</svg>
