<svg width="491" height="86" viewBox="0 0 491 86" fill="none" xmlns="http://www.w3.org/2000/svg">
<path d="M73.0349 35.8707V-1.30188e-05H113.047V8.06687H83.8445V14.3053H111.111V21.4041H83.8445V27.8038H113.047V35.8707H73.0349ZM129.874 -1.30188e-05V26.9434H154.558V35.8707H118.849V-1.30188e-05H129.874ZM168.293 14.7893L180.34 -1.30188e-05H194.054L173.94 23.2864V35.8707H162.754V23.2864L142.372 -1.30188e-05H156.139L168.293 14.7893ZM221.18 21.9419L213.544 7.7442L205.799 21.9419H221.18ZM225.16 29.3634H201.981L198.432 35.8707H186.277L206.283 -1.30188e-05H221.019L240.595 35.8707H228.548L225.16 29.3634ZM293.788 -1.30188e-05V35.8707H276.417L254.852 8.92734V35.8707H244.526V-1.30188e-05H261.897L283.462 26.8896V-1.30188e-05H293.788ZM349.353 -1.30188e-05V35.8707H331.982L310.417 8.92734V35.8707H300.091V-1.30188e-05H317.462L339.027 26.8896V-1.30188e-05H349.353ZM388.085 21.9419L380.448 7.7442L372.704 21.9419H388.085ZM392.065 29.3634H368.886L365.336 35.8707H353.182L373.188 -1.30188e-05H387.924L407.499 35.8707H395.453L392.065 29.3634ZM0.000160117 84.8707V49H38.0221V57.3895H10.8098V64.4346H36.6238V72.5015H10.8098V84.8707H0.000160117ZM71.4274 49V84.8707H60.6177V57.4433L47.6032 66.3707L42.763 59.0567L58.0901 49H71.4274ZM128.905 70.9419L121.268 56.7442L113.524 70.9419H128.905ZM132.884 78.3634H109.706L106.156 84.8707H94.002L114.008 49H128.743L148.319 84.8707H136.272L132.884 78.3634ZM163.06 76.7501H182.797C183.514 76.7501 184.16 76.7142 184.733 76.6425C185.343 76.5708 185.863 76.4274 186.293 76.2123C186.723 75.9613 187.046 75.6028 187.261 75.1367C187.512 74.6706 187.638 74.0432 187.638 73.2544C187.638 71.9996 187.261 71.175 186.508 70.7806C185.755 70.3862 184.572 70.189 182.959 70.189H163.06V76.7501ZM163.06 63.0901H181.776C183.21 63.0901 184.303 62.893 185.056 62.4986C185.845 62.1042 186.239 61.2258 186.239 59.8634C186.239 57.8556 185.182 56.8518 183.066 56.8518H163.06V63.0901ZM152.251 84.8169V49H186.078C189.878 49 192.675 49.717 194.467 51.1512C196.296 52.5494 197.21 54.9157 197.21 58.25C197.21 59.72 197.085 60.921 196.834 61.8532C196.583 62.7854 196.188 63.5562 195.651 64.1657C195.149 64.7752 194.503 65.2592 193.715 65.6178C192.926 65.9763 191.976 66.299 190.864 66.5858C192.047 66.7651 193.123 66.9802 194.091 67.2311C195.059 67.4821 195.866 67.8944 196.511 68.4681C197.192 69.0059 197.712 69.7588 198.071 70.7268C198.429 71.6948 198.608 72.9676 198.608 74.5451C198.608 76.4812 198.375 78.1125 197.909 79.439C197.479 80.7297 196.78 81.7874 195.812 82.612C194.844 83.4008 193.589 83.9744 192.047 84.3329C190.542 84.6556 188.731 84.8169 186.616 84.8169H152.251ZM238.786 49H249.811V71.5873C249.811 75.065 249.219 77.8077 248.036 79.8155C246.853 81.8232 244.917 83.2753 242.228 84.1716C240.686 84.6735 238.822 84.9783 236.635 85.0858C234.448 85.1934 231.938 85.2472 229.106 85.2472C226.13 85.2472 223.423 85.2293 220.985 85.1934C218.583 85.1934 216.432 85.0858 214.531 84.8707C212.667 84.6198 211.036 84.2254 209.637 83.6876C208.275 83.1139 207.146 82.3073 206.249 81.2675C205.353 80.1919 204.69 78.8295 204.26 77.1803C203.829 75.5311 203.614 73.4875 203.614 71.0495V49H214.639V67.8227C214.639 69.3285 214.675 70.5834 214.746 71.5873C214.854 72.5553 215.051 73.362 215.338 74.0073C215.625 74.6527 216.037 75.1367 216.575 75.4594C217.149 75.782 217.902 76.0151 218.834 76.1585C219.766 76.3019 220.913 76.3915 222.276 76.4274C223.638 76.4274 225.287 76.4274 227.223 76.4274C228.657 76.4274 229.93 76.4274 231.042 76.4274C232.153 76.4274 233.121 76.3915 233.946 76.3198C234.806 76.2123 235.523 76.0509 236.097 75.8358C236.706 75.5848 237.208 75.2084 237.603 74.7065C238.212 73.9894 238.553 73.0931 238.624 72.0175C238.732 70.9419 238.786 69.5974 238.786 67.9841V49ZM278.922 76.1585H297.314C298.892 76.1585 300.183 76.0509 301.186 75.8358C302.19 75.6207 302.979 75.1905 303.553 74.5451C304.126 73.8639 304.521 72.9138 304.736 71.6948C304.951 70.44 305.059 68.7907 305.059 66.7471C305.059 65.2055 304.987 63.861 304.843 62.7137C304.7 61.5664 304.395 60.6342 303.929 59.9172C303.463 59.2001 302.818 58.6623 301.993 58.3038C301.169 57.9453 300.075 57.766 298.713 57.766H278.922V76.1585ZM267.897 84.8707V49.0538H299.627C300.595 49.0538 301.742 49.1075 303.069 49.2151C304.431 49.3227 305.955 49.4661 307.64 49.6453C310.221 49.8963 312.265 51.2766 313.771 53.7863C315.277 56.2602 316.03 59.8455 316.03 64.5422C316.03 65.6536 315.994 67.034 315.922 68.6832C315.886 70.3324 315.832 72.2326 315.761 74.3838C315.617 77.6464 314.47 80.2099 312.319 82.0742C310.203 83.9386 307.317 84.8707 303.66 84.8707H267.897ZM356.65 61.907V49H367.675V84.8707H356.65V71.2108H331.966V84.8707H320.941V49H331.966V61.907H356.65ZM405.101 70.9419L397.464 56.7442L389.72 70.9419H405.101ZM409.081 78.3634H385.902L382.352 84.8707H370.198L390.204 49H404.94L424.515 84.8707H412.469L409.081 78.3634ZM439.257 76.7501H458.994C459.711 76.7501 460.356 76.7142 460.93 76.6425C461.539 76.5708 462.059 76.4274 462.489 76.2123C462.919 75.9613 463.242 75.6028 463.457 75.1367C463.708 74.6706 463.834 74.0432 463.834 73.2544C463.834 71.9996 463.457 71.175 462.704 70.7806C461.951 70.3862 460.768 70.189 459.155 70.189H439.257V76.7501ZM439.257 63.0901H457.972C459.406 63.0901 460.499 62.893 461.252 62.4986C462.041 62.1042 462.435 61.2258 462.435 59.8634C462.435 57.8556 461.378 56.8518 459.262 56.8518H439.257V63.0901ZM428.447 84.8169V49H462.274C466.075 49 468.871 49.717 470.664 51.1512C472.492 52.5494 473.406 54.9157 473.406 58.25C473.406 59.72 473.281 60.921 473.03 61.8532C472.779 62.7854 472.385 63.5562 471.847 64.1657C471.345 64.7752 470.7 65.2592 469.911 65.6178C469.122 65.9763 468.172 66.299 467.06 66.5858C468.244 66.7651 469.319 66.9802 470.287 67.2311C471.255 67.4821 472.062 67.8944 472.707 68.4681C473.388 69.0059 473.908 69.7588 474.267 70.7268C474.625 71.6948 474.805 72.9676 474.805 74.5451C474.805 76.4812 474.572 78.1125 474.106 79.439C473.675 80.7297 472.976 81.7874 472.008 82.612C471.04 83.4008 469.785 83.9744 468.244 84.3329C466.738 84.6556 464.927 84.8169 462.812 84.8169H428.447ZM490.835 49V84.8707H479.81V49H490.835Z" fill="white"/>
</svg>
