<svg width="39" height="14" viewBox="0 0 39 14" fill="none" xmlns="http://www.w3.org/2000/svg">
<path d="M38.9352 10.2247V6.97635H27.7194C25.454 6.97635 23.6657 8.05588 21.6487 8.78882L30.9175 10.2028L32.8735 10.2076H33.2376L33.599 10.2093L38.9334 10.2255L38.9352 10.2247Z" fill="#FF0000"/>
<path d="M15.665 11.8967C14.5287 11.3562 13.4543 10.8448 12.2301 10.8448H7.07154C6.97289 10.7547 6.89486 10.6443 6.84195 10.5201C6.7998 10.4211 6.77469 10.3115 6.76841 10.1955C6.76751 10.176 6.76572 10.1573 6.76572 10.137V3.31813C6.76572 3.28404 6.76751 3.24995 6.7711 3.21667C6.78276 3.09979 6.81505 2.99102 6.86258 2.892C6.92446 2.76538 7.01325 2.6558 7.12356 2.56814L12.231 2.58032C13.4561 2.58032 14.5296 2.06977 15.6659 1.52838C16.4228 1.168 17.1986 0.7995 18.0614 0.555186L14.2677 0.0405838C14.0731 0.0137985 13.8579 0 13.6265 0C11.597 0 8.28675 1.01135 5.83929 2.56571C5.67338 2.67122 5.51105 2.77918 5.3541 2.88956C5.20343 2.99508 5.05635 3.10304 4.91465 3.21342C3.6833 4.16714 2.81875 5.27427 2.70485 6.45039C2.69678 6.53805 2.6905 6.62571 2.6905 6.71418C2.6905 6.7921 2.69499 6.87002 2.70216 6.94794C2.8044 8.12406 3.67074 9.23606 4.90748 10.1963C5.04918 10.3067 5.19626 10.4146 5.34783 10.5209C5.50567 10.6313 5.6671 10.7401 5.83391 10.8456C8.28406 12.4048 11.6006 13.4267 13.631 13.4267C13.8606 13.4267 14.074 13.4137 14.2668 13.387L18.0614 12.8707C17.1986 12.6264 16.4219 12.2571 15.665 11.8967Z" fill="#FF0000"/>
<path d="M30.678 3.23047L21.5321 4.62574C23.5966 5.35868 25.41 6.47961 27.7185 6.47961H38.9343V3.23128L30.678 3.23047Z" fill="#FF0000"/>
<path d="M0 6.94713V10.1955H3.84921C2.70485 9.15895 2.06182 8.05182 1.982 6.94713H0Z" fill="#FF0000"/>
<path d="M0 6.44957H1.9847C2.07348 5.34488 2.71831 4.241 3.85818 3.21018L0 3.20125V6.44957Z" fill="#FF0000"/>
<path d="M30.8574 10.8513L20.7994 9.31722C20.6128 9.288 20.429 9.2531 20.2478 9.21252C20.0012 9.15814 19.7609 9.09401 19.5232 9.02421C19.2909 8.95522 19.0622 8.87973 18.8362 8.80019C16.7717 8.06724 14.9583 6.94632 12.6499 6.94632H7.48229V10.137C7.48229 10.1573 7.48498 10.1768 7.48678 10.1955H12.2292C12.6005 10.1955 12.9548 10.2352 13.2983 10.3034C15.3511 10.7101 16.9977 12.1483 19.2138 12.4487L26.1015 13.3845C26.2961 13.4113 26.5113 13.4251 26.7427 13.4251C28.7723 13.4251 32.0825 12.4138 34.5299 10.8594L30.8574 10.8513Z" fill="#FF0000"/>
<path d="M19.2156 0.975634C16.969 1.28082 15.3072 2.75564 13.214 3.13794C12.8974 3.19557 12.5709 3.22966 12.231 3.22966L7.49664 3.21829C7.48857 3.24914 7.48319 3.2816 7.48319 3.31732V6.44876H12.6507C14.9162 6.44876 16.7044 5.36923 18.7214 4.63629C18.9429 4.55593 19.1671 4.47964 19.3949 4.40983C19.6335 4.33678 19.8757 4.27023 20.1232 4.21178C20.3447 4.15984 20.5698 4.11438 20.8003 4.07786L30.6188 2.5795H34.5362C32.0861 1.0219 28.7696 0 26.7391 0C26.5095 0 26.2961 0.0129868 26.1033 0.0397721L19.2156 0.975634Z" fill="#FF0000"/>
</svg>
