<svg width="360" height="16" viewBox="0 0 360 16" fill="#FF0000" xmlns="http://www.w3.org/2000/svg">
<path d="M15.2721 5.68095V0.160952H19.9871V15.502H15.2721V9.65995H4.71507V15.502H6.65002e-05V0.160952H4.71507V5.68095H15.2721ZM35.9931 9.54495L32.7271 3.47295L29.4151 9.54495H35.9931ZM37.6951 12.719H27.7821L26.2641 15.502H21.0661L29.6221 0.160952H35.9241L44.2961 15.502H39.1441L37.6951 12.719ZM50.7156 7.81995H57.7306C57.8533 7.81995 57.9529 7.82762 58.0296 7.84295C58.1063 7.84295 58.2059 7.84295 58.3286 7.84295C58.8806 7.84295 59.3099 7.81229 59.6166 7.75095C59.9386 7.68962 60.1763 7.58229 60.3296 7.42895C60.4983 7.26029 60.5979 7.03795 60.6286 6.76195C60.6746 6.48595 60.6976 6.13329 60.6976 5.70395C60.6976 5.28995 60.6516 4.96795 60.5596 4.73795C60.4829 4.49262 60.3449 4.30862 60.1456 4.18595C59.9463 4.04795 59.6779 3.96362 59.3406 3.93295C59.0033 3.90229 58.5816 3.88695 58.0756 3.88695H50.7156V7.81995ZM50.7156 11.546V15.502H46.0006V0.160952H60.2606C61.2113 0.160952 62.0086 0.252952 62.6526 0.436952C63.3119 0.605619 63.8409 0.881619 64.2396 1.26495C64.6536 1.64829 64.9449 2.14662 65.1136 2.75995C65.2976 3.37329 65.3896 4.12462 65.3896 5.01395C65.3896 5.93395 65.3129 6.66229 65.1596 7.19895C65.0216 7.73562 64.8069 8.15729 64.5156 8.46395C64.2396 8.77062 63.8946 9.00062 63.4806 9.15395C63.0666 9.30729 62.5989 9.46062 62.0776 9.61395C62.5069 9.70595 62.9133 9.79029 63.2966 9.86695C63.6799 9.92829 64.0096 10.0586 64.2856 10.258C64.5769 10.4573 64.7993 10.7486 64.9526 11.132C65.1213 11.5 65.2056 12.0366 65.2056 12.742V15.502H60.4906V13.478C60.4906 12.8186 60.3526 12.3356 60.0766 12.029C59.8159 11.707 59.2793 11.546 58.4666 11.546H50.7156ZM72.4348 11.776H80.3008C80.9755 11.776 81.5275 11.73 81.9568 11.638C82.3861 11.546 82.7235 11.362 82.9688 11.086C83.2141 10.7946 83.3828 10.3883 83.4748 9.86695C83.5668 9.33029 83.6128 8.62495 83.6128 7.75095C83.6128 7.09162 83.5821 6.51662 83.5208 6.02595C83.4595 5.53529 83.3291 5.13662 83.1298 4.82995C82.9305 4.52329 82.6545 4.29329 82.3018 4.13995C81.9491 3.98662 81.4815 3.90995 80.8988 3.90995H72.4348V11.776ZM67.7198 15.502V0.183953H81.2898C81.7038 0.183953 82.1945 0.206953 82.7618 0.252952C83.3445 0.298952 83.9961 0.360286 84.7168 0.436952C85.8208 0.544286 86.6948 1.13462 87.3388 2.20795C87.9828 3.26595 88.3048 4.79929 88.3048 6.80795C88.3048 7.28329 88.2895 7.87362 88.2588 8.57895C88.2435 9.28429 88.2205 10.097 88.1898 11.017C88.1285 12.4123 87.6378 13.5086 86.7178 14.306C85.8131 15.1033 84.5788 15.502 83.0148 15.502H67.7198ZM95.4821 15.502V0.160952H111.743V3.74895H100.105V6.76195H111.145V10.212H100.105V15.502H95.4821ZM113.196 15.502V0.160952H130.308V3.61095H117.819V6.27895H129.48V9.31495H117.819V12.052H130.308V15.502H113.196ZM132.467 15.502V0.160952H149.579V3.61095H137.09V6.27895H148.751V9.31495H137.09V12.052H149.579V15.502H132.467ZM156.776 0.160952V11.684H167.333V15.502H152.061V0.160952H156.776ZM173.509 0.160952V15.502H168.794V0.160952H173.509ZM197.252 0.160952V15.502H189.823L180.6 3.97895V15.502H176.184V0.160952H183.613L192.836 11.661V0.160952H197.252ZM208.825 9.75195V6.83095H219.336C219.321 8.01162 219.306 9.04662 219.29 9.93595C219.29 10.8253 219.244 11.5996 219.152 12.259C219.076 12.903 218.922 13.4473 218.692 13.892C218.462 14.3213 218.117 14.674 217.657 14.95C217.213 15.2106 216.615 15.3946 215.863 15.502C215.127 15.6093 214.2 15.663 213.08 15.663C212.59 15.663 212.091 15.6553 211.585 15.64C211.095 15.64 210.612 15.64 210.136 15.64H208.71C207.008 15.64 205.559 15.594 204.363 15.502C203.183 15.41 202.217 15.1493 201.465 14.72C200.714 14.2906 200.17 13.639 199.832 12.765C199.495 11.891 199.326 10.672 199.326 9.10795C199.326 8.63262 199.342 7.99629 199.372 7.19895C199.403 6.38629 199.449 5.42029 199.51 4.30095C199.526 3.81029 199.633 3.33495 199.832 2.87495C200.032 2.41495 200.285 2.00862 200.591 1.65595C200.913 1.30329 201.274 1.01195 201.672 0.781952C202.086 0.536619 202.523 0.383286 202.983 0.321953C203.903 0.199286 204.823 0.114952 205.743 0.068953C206.663 0.0229527 207.583 -4.74453e-05 208.503 -4.74453e-05C209.745 -4.74453e-05 210.857 -4.74453e-05 211.838 -4.74453e-05C212.835 -4.74453e-05 213.717 0.0306193 214.483 0.0919527C215.25 0.153286 215.909 0.26062 216.461 0.413953C217.013 0.551953 217.473 0.766619 217.841 1.05795C218.194 1.33395 218.47 1.62529 218.669 1.93195C218.869 2.23862 219.014 2.56829 219.106 2.92095C219.198 3.27362 219.252 3.65695 219.267 4.07095C219.298 4.48495 219.313 4.92962 219.313 5.40495H214.736C214.706 5.00629 214.644 4.69962 214.552 4.48495C214.46 4.25495 214.292 4.08629 214.046 3.97895C213.816 3.85629 213.487 3.77962 213.057 3.74895C212.643 3.71829 212.107 3.70295 211.447 3.70295H210.274C209.86 3.70295 209.454 3.70295 209.055 3.70295C208.657 3.68762 208.289 3.67995 207.951 3.67995C207.185 3.67995 206.548 3.69529 206.042 3.72595C205.552 3.74129 205.153 3.85629 204.846 4.07095C204.54 4.28562 204.325 4.63829 204.202 5.12895C204.08 5.60429 204.018 6.30195 204.018 7.22195C204.018 8.06529 204.034 8.77062 204.064 9.33795C204.11 9.90529 204.202 10.3653 204.34 10.718C204.478 11.0706 204.685 11.339 204.961 11.523C205.237 11.6916 205.605 11.8143 206.065 11.891C206.541 11.9676 207.123 12.006 207.813 12.006C208.519 12.006 209.37 12.006 210.366 12.006C211.102 12.006 211.746 12.006 212.298 12.006C212.85 12.006 213.31 11.9523 213.678 11.845C214.046 11.7376 214.315 11.5613 214.483 11.316C214.667 11.0553 214.759 10.672 214.759 10.166C214.759 10.074 214.752 10.005 214.736 9.95895C214.736 9.91295 214.736 9.84395 214.736 9.75195H208.825ZM234.829 4.85295C234.814 4.50029 234.752 4.22429 234.645 4.02495C234.538 3.81029 234.346 3.65695 234.07 3.56495C233.809 3.45762 233.457 3.38862 233.012 3.35795C232.583 3.32729 232.023 3.31195 231.333 3.31195C231.21 3.31195 231.111 3.31195 231.034 3.31195C230.957 3.31195 230.858 3.31962 230.735 3.33495C229.738 3.38095 228.903 3.40395 228.228 3.40395C227.553 3.40395 227.009 3.44229 226.595 3.51895C226.181 3.58029 225.882 3.70295 225.698 3.88695C225.514 4.07095 225.422 4.37762 225.422 4.80695C225.422 5.19029 225.56 5.48162 225.836 5.68095C226.112 5.86495 226.495 5.96462 226.986 5.97995C227.676 5.99529 228.328 6.01062 228.941 6.02595C229.57 6.04129 230.152 6.04895 230.689 6.04895C231.011 6.04895 231.341 6.04895 231.678 6.04895C232.031 6.03362 232.36 6.02595 232.667 6.02595C233.94 6.02595 235.044 6.06429 235.979 6.14095C236.914 6.20229 237.681 6.38629 238.279 6.69295C238.892 6.99962 239.345 7.46729 239.636 8.09595C239.927 8.72462 240.073 9.60629 240.073 10.741C240.073 11.5383 239.996 12.213 239.843 12.765C239.69 13.317 239.444 13.777 239.107 14.145C238.785 14.4976 238.371 14.7736 237.865 14.973C237.359 15.1723 236.753 15.3103 236.048 15.387C235.634 15.433 234.837 15.4866 233.656 15.548C232.475 15.6093 230.965 15.64 229.125 15.64C227.316 15.64 225.836 15.5863 224.686 15.479C223.551 15.3716 222.723 15.134 222.202 14.766C221.834 14.5053 221.558 14.2293 221.374 13.938C221.205 13.6313 221.083 13.3093 221.006 12.972C220.945 12.6346 220.914 12.2743 220.914 11.891C220.914 11.4923 220.914 11.063 220.914 10.603H225.537C225.537 10.7716 225.537 10.948 225.537 11.132C225.537 11.316 225.575 11.4846 225.652 11.638C225.729 11.776 225.867 11.9063 226.066 12.029C226.265 12.1363 226.572 12.2053 226.986 12.236C227.185 12.2513 227.553 12.2666 228.09 12.282C228.642 12.2973 229.332 12.305 230.16 12.305C231.233 12.305 232.107 12.2973 232.782 12.282C233.472 12.2666 234.009 12.213 234.392 12.121C234.775 12.029 235.036 11.891 235.174 11.707C235.312 11.523 235.381 11.2546 235.381 10.902C235.381 10.5646 235.312 10.304 235.174 10.12C235.036 9.92062 234.837 9.78262 234.576 9.70595C234.315 9.61395 234.001 9.56029 233.633 9.54495C233.28 9.52962 232.889 9.52195 232.46 9.52195C230.957 9.50662 229.623 9.50662 228.458 9.52195C227.293 9.52195 226.281 9.49129 225.422 9.42995C224.563 9.36862 223.835 9.26129 223.237 9.10795C222.654 8.95462 222.179 8.70929 221.811 8.37195C221.458 8.03462 221.198 7.58995 221.029 7.03795C220.876 6.48595 220.799 5.78829 220.799 4.94495C220.799 4.19362 220.86 3.54195 220.983 2.98995C221.121 2.43795 221.343 1.97795 221.65 1.60995C221.957 1.22662 222.355 0.935286 222.846 0.735953C223.352 0.521286 223.973 0.367952 224.709 0.275952C225.2 0.214619 225.989 0.153286 227.078 0.0919527C228.182 0.0306193 229.562 -4.74453e-05 231.218 -4.74453e-05C232.092 -4.74453e-05 232.874 0.00761912 233.564 0.0229523C234.269 0.0229523 234.89 0.053619 235.427 0.114952C235.979 0.176286 236.462 0.268286 236.876 0.390953C237.29 0.498286 237.65 0.666952 237.957 0.896952C238.294 1.14229 238.555 1.40295 238.739 1.67895C238.938 1.95495 239.084 2.25395 239.176 2.57595C239.268 2.89795 239.329 3.25062 239.36 3.63395C239.391 4.00195 239.406 4.40829 239.406 4.85295H234.829ZM260.524 4.85295C260.509 4.50029 260.448 4.22429 260.34 4.02495C260.233 3.81029 260.041 3.65695 259.765 3.56495C259.505 3.45762 259.152 3.38862 258.707 3.35795C258.278 3.32729 257.718 3.31195 257.028 3.31195C256.906 3.31195 256.806 3.31195 256.729 3.31195C256.653 3.31195 256.553 3.31962 256.43 3.33495C255.434 3.38095 254.598 3.40395 253.923 3.40395C253.249 3.40395 252.704 3.44229 252.29 3.51895C251.876 3.58029 251.577 3.70295 251.393 3.88695C251.209 4.07095 251.117 4.37762 251.117 4.80695C251.117 5.19029 251.255 5.48162 251.531 5.68095C251.807 5.86495 252.191 5.96462 252.681 5.97995C253.371 5.99529 254.023 6.01062 254.636 6.02595C255.265 6.04129 255.848 6.04895 256.384 6.04895C256.706 6.04895 257.036 6.04895 257.373 6.04895C257.726 6.03362 258.056 6.02595 258.362 6.02595C259.635 6.02595 260.739 6.06429 261.674 6.14095C262.61 6.20229 263.376 6.38629 263.974 6.69295C264.588 6.99962 265.04 7.46729 265.331 8.09595C265.623 8.72462 265.768 9.60629 265.768 10.741C265.768 11.5383 265.692 12.213 265.538 12.765C265.385 13.317 265.14 13.777 264.802 14.145C264.48 14.4976 264.066 14.7736 263.56 14.973C263.054 15.1723 262.449 15.3103 261.743 15.387C261.329 15.433 260.532 15.4866 259.351 15.548C258.171 15.6093 256.66 15.64 254.82 15.64C253.011 15.64 251.531 15.5863 250.381 15.479C249.247 15.3716 248.419 15.134 247.897 14.766C247.529 14.5053 247.253 14.2293 247.069 13.938C246.901 13.6313 246.778 13.3093 246.701 12.972C246.64 12.6346 246.609 12.2743 246.609 11.891C246.609 11.4923 246.609 11.063 246.609 10.603H251.232C251.232 10.7716 251.232 10.948 251.232 11.132C251.232 11.316 251.271 11.4846 251.347 11.638C251.424 11.776 251.562 11.9063 251.761 12.029C251.961 12.1363 252.267 12.2053 252.681 12.236C252.881 12.2513 253.249 12.2666 253.785 12.282C254.337 12.2973 255.027 12.305 255.855 12.305C256.929 12.305 257.803 12.2973 258.477 12.282C259.167 12.2666 259.704 12.213 260.087 12.121C260.471 12.029 260.731 11.891 260.869 11.707C261.007 11.523 261.076 11.2546 261.076 10.902C261.076 10.5646 261.007 10.304 260.869 10.12C260.731 9.92062 260.532 9.78262 260.271 9.70595C260.011 9.61395 259.696 9.56029 259.328 9.54495C258.976 9.52962 258.585 9.52195 258.155 9.52195C256.653 9.50662 255.319 9.50662 254.153 9.52195C252.988 9.52195 251.976 9.49129 251.117 9.42995C250.259 9.36862 249.53 9.26129 248.932 9.10795C248.35 8.95462 247.874 8.70929 247.506 8.37195C247.154 8.03462 246.893 7.58995 246.724 7.03795C246.571 6.48595 246.494 5.78829 246.494 4.94495C246.494 4.19362 246.556 3.54195 246.678 2.98995C246.816 2.43795 247.039 1.97795 247.345 1.60995C247.652 1.22662 248.051 0.935286 248.541 0.735953C249.047 0.521286 249.668 0.367952 250.404 0.275952C250.895 0.214619 251.685 0.153286 252.773 0.0919527C253.877 0.0306193 255.257 -4.74453e-05 256.913 -4.74453e-05C257.787 -4.74453e-05 258.569 0.00761912 259.259 0.0229523C259.965 0.0229523 260.586 0.053619 261.122 0.114952C261.674 0.176286 262.157 0.268286 262.571 0.390953C262.985 0.498286 263.346 0.666952 263.652 0.896952C263.99 1.14229 264.25 1.40295 264.434 1.67895C264.634 1.95495 264.779 2.25395 264.871 2.57595C264.963 2.89795 265.025 3.25062 265.055 3.63395C265.086 4.00195 265.101 4.40829 265.101 4.85295H260.524ZM278.291 4.00195V15.502H273.576V4.00195H266.699V0.160952H285.053V4.00195H278.291ZM301.778 0.160952H306.493V9.82095C306.493 11.3083 306.24 12.4813 305.734 13.34C305.228 14.1986 304.4 14.8196 303.25 15.203C302.591 15.4176 301.794 15.548 300.858 15.594C299.923 15.64 298.85 15.663 297.638 15.663C296.366 15.663 295.208 15.6553 294.165 15.64C293.138 15.64 292.218 15.594 291.405 15.502C290.608 15.3946 289.91 15.226 289.312 14.996C288.73 14.7506 288.247 14.4056 287.863 13.961C287.48 13.501 287.196 12.9183 287.012 12.213C286.828 11.5076 286.736 10.6336 286.736 9.59095V0.160952H291.451V8.21095C291.451 8.85495 291.467 9.39162 291.497 9.82095C291.543 10.235 291.628 10.58 291.75 10.856C291.873 11.132 292.049 11.339 292.279 11.477C292.525 11.615 292.847 11.7146 293.245 11.776C293.644 11.8373 294.135 11.8756 294.717 11.891C295.3 11.891 296.005 11.891 296.833 11.891C297.447 11.891 297.991 11.891 298.466 11.891C298.942 11.891 299.356 11.8756 299.708 11.845C300.076 11.799 300.383 11.73 300.628 11.638C300.889 11.5306 301.104 11.3696 301.272 11.155C301.533 10.8483 301.679 10.465 301.709 10.005C301.755 9.54495 301.778 8.96995 301.778 8.27995V0.160952ZM313.89 11.776H321.756C322.431 11.776 322.983 11.73 323.412 11.638C323.841 11.546 324.179 11.362 324.424 11.086C324.669 10.7946 324.838 10.3883 324.93 9.86695C325.022 9.33029 325.068 8.62495 325.068 7.75095C325.068 7.09162 325.037 6.51662 324.976 6.02595C324.915 5.53529 324.784 5.13662 324.585 4.82995C324.386 4.52329 324.11 4.29329 323.757 4.13995C323.404 3.98662 322.937 3.90995 322.354 3.90995H313.89V11.776ZM309.175 15.502V0.183953H322.745C323.159 0.183953 323.65 0.206953 324.217 0.252952C324.8 0.298952 325.451 0.360286 326.172 0.436952C327.276 0.544286 328.15 1.13462 328.794 2.20795C329.438 3.26595 329.76 4.79929 329.76 6.80795C329.76 7.28329 329.745 7.87362 329.714 8.57895C329.699 9.28429 329.676 10.097 329.645 11.017C329.584 12.4123 329.093 13.5086 328.173 14.306C327.268 15.1033 326.034 15.502 324.47 15.502H309.175ZM336.575 0.160952V15.502H331.86V0.160952H336.575ZM343.367 7.17595C343.367 7.95795 343.375 8.61729 343.39 9.15395C343.421 9.69062 343.482 10.1353 343.574 10.488C343.681 10.8406 343.835 11.109 344.034 11.293C344.249 11.477 344.54 11.615 344.908 11.707C345.291 11.799 345.759 11.8526 346.311 11.868C346.878 11.8833 347.561 11.891 348.358 11.891C349.953 11.891 351.195 11.8756 352.084 11.845C352.973 11.799 353.625 11.6456 354.039 11.385C354.468 11.1243 354.729 10.7026 354.821 10.12C354.913 9.52195 354.959 8.67862 354.959 7.58995C354.959 6.70062 354.913 6.00295 354.821 5.49695C354.744 4.97562 354.568 4.59229 354.292 4.34695C354.016 4.08629 353.61 3.92529 353.073 3.86395C352.536 3.80262 351.823 3.77195 350.934 3.77195C349.324 3.77195 348.021 3.77195 347.024 3.77195C346.027 3.77195 345.261 3.87162 344.724 4.07095C344.187 4.25495 343.827 4.58462 343.643 5.05995C343.459 5.53529 343.367 6.24062 343.367 7.17595ZM338.606 9.29195C338.606 7.83529 338.621 6.58562 338.652 5.54295C338.698 4.48495 338.844 3.59562 339.089 2.87495C339.35 2.15429 339.748 1.58695 340.285 1.17295C340.837 0.743619 341.619 0.436952 342.631 0.252952C343.321 0.130286 344.571 0.061286 346.38 0.045952C348.205 0.0152857 350.589 -4.74453e-05 353.533 -4.74453e-05C354.499 -4.74453e-05 355.335 0.0842857 356.04 0.252952C356.745 0.421619 357.336 0.689953 357.811 1.05795C358.302 1.41062 358.685 1.87829 358.961 2.46095C359.237 3.04362 359.429 3.74895 359.536 4.57695C359.597 5.00629 359.628 5.56595 359.628 6.25595C359.643 6.94595 359.651 7.75095 359.651 8.67095C359.651 9.79029 359.582 10.741 359.444 11.523C359.306 12.2896 359.068 12.9336 358.731 13.455C358.394 13.9763 357.941 14.3826 357.374 14.674C356.822 14.9653 356.124 15.1876 355.281 15.341C354.438 15.479 353.441 15.5633 352.291 15.594C351.156 15.64 349.83 15.663 348.312 15.663C346.595 15.663 345.123 15.6093 343.896 15.502C342.669 15.41 341.665 15.157 340.883 14.743C340.101 14.3136 339.526 13.6773 339.158 12.834C338.79 11.9753 338.606 10.7946 338.606 9.29195Z" fill="white"/>
</svg>
  
