<svg width="539" height="210" viewBox="0 0 539 210" fill="none" xmlns="http://www.w3.org/2000/svg">
<path d="M152.151 20.5747V-9.72952e-07H169.726V57.1805H152.151V35.4056H112.802V57.1805H95.2282V-9.72952e-07H112.802V20.5747H152.151ZM229.385 34.977L217.212 12.3448L204.867 34.977H229.385ZM235.729 46.8074H198.78L193.122 57.1805H173.748L205.638 -9.72952e-07H229.128L260.333 57.1805H241.13L235.729 46.8074ZM284.26 28.5474H310.407C310.864 28.5474 311.236 28.5759 311.522 28.6331C311.807 28.6331 312.179 28.6331 312.636 28.6331C314.693 28.6331 316.294 28.5188 317.437 28.2902C318.637 28.0616 319.523 27.6615 320.094 27.09C320.723 26.4613 321.095 25.6326 321.209 24.6039C321.38 23.5752 321.466 22.2607 321.466 20.6604C321.466 19.1173 321.295 17.9171 320.952 17.0598C320.666 16.1454 320.151 15.4596 319.409 15.0024C318.666 14.488 317.665 14.1737 316.408 14.0594C315.151 13.9451 313.579 13.8879 311.693 13.8879H284.26V28.5474ZM284.26 42.4353V57.1805H266.686V-9.72952e-07H319.837C323.381 -9.72952e-07 326.352 0.342911 328.753 1.02874C331.21 1.6574 333.182 2.68614 334.668 4.11494C336.211 5.54373 337.297 7.40117 337.926 9.68725C338.612 11.9733 338.954 14.7738 338.954 18.0886C338.954 21.5177 338.669 24.2324 338.097 26.2327C337.583 28.233 336.783 29.8047 335.697 30.9477C334.668 32.0908 333.382 32.9481 331.839 33.5196C330.296 34.0911 328.553 34.6626 326.61 35.2341C328.21 35.5771 329.724 35.8914 331.153 36.1771C332.582 36.4058 333.811 36.8915 334.84 37.6345C335.925 38.3775 336.754 39.4634 337.326 40.8922C337.954 42.2638 338.269 44.2641 338.269 46.8931V57.1805H320.694V49.6364C320.694 47.1789 320.18 45.3786 319.151 44.2356C318.18 43.0354 316.179 42.4353 313.15 42.4353H284.26ZM365.214 43.2926H394.533C397.048 43.2926 399.105 43.1211 400.705 42.7782C402.306 42.4353 403.563 41.7495 404.477 40.7207C405.392 39.6348 406.02 38.1203 406.363 36.1771C406.706 34.1768 406.878 31.5478 406.878 28.2902C406.878 25.8327 406.763 23.6895 406.535 21.8606C406.306 20.0317 405.82 18.5458 405.077 17.4028C404.334 16.2597 403.306 15.4024 401.991 14.8309C400.677 14.2594 398.934 13.9736 396.762 13.9736H365.214V43.2926ZM347.64 57.1805V0.0857309H398.219C399.762 0.0857309 401.591 0.171458 403.706 0.342911C405.878 0.514368 408.306 0.742976 410.993 1.02874C415.108 1.4288 418.365 3.62915 420.766 7.62978C423.166 11.5733 424.366 17.2884 424.366 24.7753C424.366 26.5471 424.309 28.7474 424.195 31.3764C424.138 34.0054 424.052 37.0344 423.938 40.4635C423.709 45.6644 421.88 49.7507 418.451 52.7226C415.079 55.6945 410.478 57.1805 404.649 57.1805H347.64ZM0.000328879 133.18V76H60.6099V89.3735H17.2316V100.604H58.381V113.463H17.2316V133.18H0.000328879ZM66.0241 133.18V76H129.806V88.8592H83.2554V98.8036H126.719V110.12H83.2554V120.321H129.806V133.18H66.0241ZM137.855 133.18V76H201.636V88.8592H155.086V98.8036H198.55V110.12H155.086V120.321H201.636V133.18H137.855ZM228.46 76V118.95H267.809V133.18H210.885V76H228.46ZM290.83 76V133.18H273.256V76H290.83ZM379.326 76V133.18H351.636L317.259 90.2308V133.18H300.799V76H328.489L362.866 118.864V76H379.326ZM422.464 111.749V100.861H461.642C461.585 105.262 461.528 109.12 461.471 112.434C461.471 115.749 461.299 118.635 460.956 121.093C460.67 123.493 460.099 125.522 459.242 127.18C458.384 128.78 457.098 130.094 455.384 131.123C453.726 132.095 451.498 132.78 448.697 133.18C445.954 133.581 442.496 133.781 438.324 133.781C436.495 133.781 434.638 133.752 432.752 133.695C430.923 133.695 429.123 133.695 427.351 133.695H422.036C415.692 133.695 410.291 133.523 405.833 133.18C401.433 132.838 397.832 131.866 395.031 130.266C392.231 128.665 390.202 126.237 388.945 122.979C387.687 119.721 387.059 115.178 387.059 109.348C387.059 107.576 387.116 105.205 387.23 102.233C387.345 99.2037 387.516 95.6031 387.745 91.431C387.802 89.6021 388.202 87.8304 388.945 86.1159C389.688 84.4013 390.631 82.8868 391.774 81.5723C392.974 80.2578 394.317 79.1719 395.803 78.3147C397.346 77.4002 398.975 76.8287 400.69 76.6001C404.119 76.1429 407.548 75.8285 410.977 75.6571C414.406 75.4856 417.835 75.3999 421.264 75.3999C425.894 75.3999 430.037 75.3999 433.695 75.3999C437.41 75.3999 440.696 75.5142 443.553 75.7428C446.411 75.9714 448.869 76.3715 450.926 76.943C452.984 77.4574 454.698 78.2575 456.07 79.3434C457.384 80.3721 458.413 81.458 459.156 82.601C459.899 83.7441 460.442 84.9728 460.785 86.2873C461.128 87.6018 461.328 89.0306 461.385 90.5737C461.499 92.1168 461.556 93.7742 461.556 95.5459H444.496C444.382 94.06 444.154 92.917 443.811 92.1168C443.468 91.2596 442.839 90.6309 441.925 90.2308C441.067 89.7736 439.839 89.4878 438.238 89.3735C436.695 89.2592 434.695 89.2021 432.237 89.2021H427.865C426.322 89.2021 424.808 89.2021 423.322 89.2021C421.836 89.1449 420.464 89.1164 419.207 89.1164C416.349 89.1164 413.977 89.1735 412.091 89.2878C410.262 89.345 408.777 89.7736 407.633 90.5737C406.49 91.3739 405.69 92.6884 405.233 94.5172C404.776 96.2889 404.547 98.8893 404.547 102.318C404.547 105.462 404.604 108.091 404.719 110.205C404.89 112.32 405.233 114.035 405.747 115.349C406.262 116.664 407.033 117.664 408.062 118.35C409.091 118.978 410.463 119.435 412.177 119.721C413.949 120.007 416.121 120.15 418.692 120.15C421.321 120.15 424.493 120.15 428.208 120.15C430.951 120.15 433.352 120.15 435.409 120.15C437.467 120.15 439.181 119.95 440.553 119.55C441.925 119.15 442.925 118.492 443.553 117.578C444.239 116.606 444.582 115.178 444.582 113.292C444.582 112.949 444.554 112.692 444.496 112.52C444.496 112.349 444.496 112.091 444.496 111.749H422.464ZM519.388 93.4885C519.331 92.174 519.102 91.1453 518.702 90.4023C518.302 89.6022 517.587 89.0306 516.559 88.6877C515.587 88.2877 514.273 88.0305 512.615 87.9162C511.015 87.8019 508.929 87.7447 506.357 87.7447C505.9 87.7447 505.528 87.7447 505.243 87.7447C504.957 87.7447 504.585 87.7733 504.128 87.8304C500.413 88.0019 497.299 88.0876 494.784 88.0876C492.269 88.0876 490.24 88.2305 488.697 88.5163C487.154 88.7449 486.04 89.2021 485.354 89.8879C484.668 90.5737 484.325 91.7168 484.325 93.317C484.325 94.7458 484.839 95.8317 485.868 96.5747C486.897 97.2605 488.326 97.632 490.155 97.6891C492.726 97.7463 495.155 97.8034 497.441 97.8606C499.785 97.9178 501.956 97.9463 503.957 97.9463C505.157 97.9463 506.386 97.9463 507.643 97.9463C508.958 97.8892 510.186 97.8606 511.329 97.8606C516.073 97.8606 520.188 98.0035 523.674 98.2892C527.16 98.5178 530.018 99.2037 532.247 100.347C534.533 101.49 536.219 103.233 537.305 105.576C538.391 107.919 538.934 111.206 538.934 115.435C538.934 118.407 538.648 120.921 538.076 122.979C537.505 125.036 536.59 126.751 535.333 128.123C534.133 129.437 532.59 130.466 530.704 131.209C528.818 131.952 526.56 132.466 523.931 132.752C522.388 132.923 519.416 133.123 515.016 133.352C510.615 133.581 504.985 133.695 498.127 133.695C491.383 133.695 485.868 133.495 481.582 133.095C477.353 132.695 474.266 131.809 472.323 130.437C470.952 129.466 469.923 128.437 469.237 127.351C468.608 126.208 468.151 125.008 467.865 123.75C467.637 122.493 467.522 121.15 467.522 119.721C467.522 118.235 467.522 116.635 467.522 114.92H484.754C484.754 115.549 484.754 116.206 484.754 116.892C484.754 117.578 484.897 118.207 485.182 118.778C485.468 119.293 485.982 119.778 486.725 120.236C487.468 120.636 488.611 120.893 490.155 121.007C490.898 121.064 492.269 121.121 494.269 121.179C496.327 121.236 498.899 121.264 501.985 121.264C505.986 121.264 509.243 121.236 511.758 121.179C514.33 121.121 516.33 120.921 517.759 120.578C519.188 120.236 520.159 119.721 520.674 119.035C521.188 118.35 521.445 117.349 521.445 116.035C521.445 114.778 521.188 113.806 520.674 113.12C520.159 112.377 519.416 111.863 518.445 111.577C517.473 111.234 516.302 111.034 514.93 110.977C513.615 110.92 512.158 110.891 510.558 110.891C504.957 110.834 499.985 110.834 495.641 110.891C491.298 110.891 487.526 110.777 484.325 110.548C481.125 110.32 478.41 109.92 476.181 109.348C474.009 108.777 472.237 107.862 470.866 106.605C469.551 105.347 468.58 103.69 467.951 101.633C467.38 99.5752 467.094 96.9747 467.094 93.8314C467.094 91.0309 467.322 88.602 467.78 86.5445C468.294 84.4871 469.123 82.7725 470.266 81.4009C471.409 79.9721 472.895 78.8862 474.724 78.1432C476.61 77.3431 478.924 76.7716 481.667 76.4286C483.496 76.2 486.44 75.9714 490.497 75.7428C494.612 75.5142 499.756 75.3999 505.928 75.3999C509.186 75.3999 512.101 75.4285 514.673 75.4856C517.302 75.4856 519.616 75.5999 521.617 75.8285C523.674 76.0572 525.474 76.4001 527.018 76.8573C528.561 77.2573 529.904 77.886 531.047 78.7433C532.304 79.6577 533.276 80.6293 533.961 81.658C534.704 82.6868 535.247 83.8012 535.59 85.0014C535.933 86.2016 536.162 87.5161 536.276 88.9449C536.39 90.3165 536.448 91.8311 536.448 93.4885H519.388ZM109.502 169.488C109.444 168.174 109.216 167.145 108.816 166.402C108.416 165.602 107.701 165.031 106.673 164.688C105.701 164.288 104.386 164.03 102.729 163.916C101.129 163.802 99.0428 163.745 96.4709 163.745C96.0137 163.745 95.6422 163.745 95.3565 163.745C95.0707 163.745 94.6992 163.773 94.242 163.83C90.5271 164.002 87.4124 164.088 84.8977 164.088C82.383 164.088 80.3541 164.231 78.811 164.516C77.2679 164.745 76.1534 165.202 75.4676 165.888C74.7818 166.574 74.4389 167.717 74.4389 169.317C74.4389 170.746 74.9532 171.832 75.982 172.575C77.0107 173.261 78.4395 173.632 80.2684 173.689C82.8402 173.746 85.2692 173.803 87.5552 173.861C89.8985 173.918 92.0702 173.946 94.0706 173.946C95.2707 173.946 96.4995 173.946 97.7568 173.946C99.0713 173.889 100.3 173.861 101.443 173.861C106.187 173.861 110.302 174.003 113.788 174.289C117.274 174.518 120.132 175.204 122.361 176.347C124.647 177.49 126.333 179.233 127.419 181.576C128.505 183.919 129.048 187.206 129.048 191.435C129.048 194.407 128.762 196.921 128.19 198.979C127.619 201.036 126.704 202.751 125.447 204.123C124.247 205.437 122.704 206.466 120.818 207.209C118.932 207.952 116.674 208.466 114.045 208.752C112.502 208.923 109.53 209.123 105.129 209.352C100.729 209.581 95.0993 209.695 88.2411 209.695C81.4971 209.695 75.982 209.495 71.6956 209.095C67.4663 208.695 64.3801 207.809 62.437 206.437C61.0653 205.466 60.0366 204.437 59.3508 203.351C58.7221 202.208 58.2649 201.008 57.9791 199.75C57.7505 198.493 57.6362 197.15 57.6362 195.721C57.6362 194.235 57.6362 192.635 57.6362 190.92H74.8675C74.8675 191.549 74.8675 192.206 74.8675 192.892C74.8675 193.578 75.0104 194.207 75.2962 194.778C75.5819 195.293 76.0963 195.778 76.8393 196.236C77.5822 196.636 78.7253 196.893 80.2684 197.007C81.0113 197.064 82.383 197.121 84.3833 197.179C86.4408 197.236 89.0126 197.264 92.0988 197.264C96.0994 197.264 99.3571 197.236 101.872 197.179C104.444 197.121 106.444 196.921 107.873 196.578C109.302 196.236 110.273 195.721 110.787 195.035C111.302 194.35 111.559 193.349 111.559 192.035C111.559 190.778 111.302 189.806 110.787 189.12C110.273 188.377 109.53 187.863 108.559 187.577C107.587 187.234 106.415 187.034 105.044 186.977C103.729 186.92 102.272 186.891 100.672 186.891C95.0707 186.834 90.0985 186.834 85.755 186.891C81.4114 186.891 77.6394 186.777 74.4389 186.548C71.2384 186.32 68.5237 185.92 66.2947 185.348C64.123 184.777 62.3513 183.862 60.9796 182.605C59.6651 181.347 58.6935 179.69 58.0649 177.633C57.4933 175.575 57.2076 172.975 57.2076 169.831C57.2076 167.031 57.4362 164.602 57.8934 162.545C58.4078 160.487 59.2365 158.772 60.3795 157.401C61.5226 155.972 63.0085 154.886 64.8374 154.143C66.7234 153.343 69.038 152.772 71.7813 152.429C73.6102 152.2 76.5535 151.971 80.6113 151.743C84.7262 151.514 89.8699 151.4 96.0423 151.4C99.3 151.4 102.215 151.428 104.787 151.486C107.416 151.486 109.73 151.6 111.73 151.829C113.788 152.057 115.588 152.4 117.131 152.857C118.674 153.257 120.018 153.886 121.161 154.743C122.418 155.658 123.389 156.629 124.075 157.658C124.818 158.687 125.361 159.801 125.704 161.001C126.047 162.202 126.276 163.516 126.39 164.945C126.504 166.317 126.561 167.831 126.561 169.488H109.502ZM175.723 166.317V209.18H158.149V166.317H132.516V152H200.927V166.317H175.723ZM263.268 152H280.842V188.006C280.842 193.549 279.899 197.922 278.013 201.122C276.127 204.323 273.041 206.637 268.754 208.066C266.297 208.866 263.325 209.352 259.839 209.523C256.352 209.695 252.352 209.781 247.837 209.781C243.093 209.781 238.778 209.752 234.892 209.695C231.063 209.695 227.634 209.523 224.605 209.18C221.633 208.78 219.032 208.152 216.803 207.294C214.632 206.38 212.831 205.094 211.402 203.437C209.974 201.722 208.916 199.55 208.231 196.921C207.545 194.292 207.202 191.035 207.202 187.148V152H224.776V182.005C224.776 184.405 224.833 186.405 224.947 188.006C225.119 189.549 225.433 190.835 225.89 191.863C226.348 192.892 227.005 193.664 227.862 194.178C228.777 194.692 229.977 195.064 231.463 195.293C232.949 195.521 234.778 195.664 236.949 195.721C239.121 195.721 241.75 195.721 244.836 195.721C247.122 195.721 249.151 195.721 250.923 195.721C252.695 195.721 254.238 195.664 255.552 195.55C256.924 195.378 258.067 195.121 258.981 194.778C259.953 194.378 260.753 193.778 261.382 192.978C262.353 191.835 262.896 190.406 263.011 188.692C263.182 186.977 263.268 184.834 263.268 182.262V152ZM308.411 195.293H337.73C340.244 195.293 342.302 195.121 343.902 194.778C345.502 194.435 346.76 193.749 347.674 192.721C348.589 191.635 349.217 190.12 349.56 188.177C349.903 186.177 350.075 183.548 350.075 180.29C350.075 177.833 349.96 175.689 349.732 173.861C349.503 172.032 349.017 170.546 348.274 169.403C347.531 168.26 346.503 167.402 345.188 166.831C343.874 166.259 342.131 165.974 339.959 165.974H308.411V195.293ZM290.837 209.18V152.086H341.416C342.959 152.086 344.788 152.171 346.903 152.343C349.074 152.514 351.503 152.743 354.19 153.029C358.304 153.429 361.562 155.629 363.963 159.63C366.363 163.573 367.563 169.288 367.563 176.775C367.563 178.547 367.506 180.747 367.392 183.376C367.334 186.005 367.249 189.034 367.134 192.464C366.906 197.664 365.077 201.751 361.648 204.723C358.276 207.695 353.675 209.18 347.846 209.18H290.837ZM392.967 152V209.18H375.392V152H392.967ZM418.281 178.147C418.281 181.062 418.31 183.519 418.367 185.52C418.481 187.52 418.71 189.177 419.053 190.492C419.453 191.806 420.024 192.806 420.767 193.492C421.567 194.178 422.653 194.692 424.025 195.035C425.454 195.378 427.197 195.578 429.254 195.635C431.369 195.693 433.912 195.721 436.884 195.721C442.828 195.721 447.457 195.664 450.772 195.55C454.087 195.378 456.516 194.807 458.059 193.835C459.659 192.864 460.631 191.292 460.974 189.12C461.317 186.891 461.488 183.748 461.488 179.69C461.488 176.375 461.317 173.775 460.974 171.889C460.688 169.946 460.031 168.517 459.002 167.602C457.973 166.631 456.459 166.031 454.458 165.802C452.458 165.574 449.8 165.459 446.486 165.459C440.485 165.459 435.627 165.459 431.912 165.459C428.197 165.459 425.339 165.831 423.339 166.574C421.339 167.26 419.996 168.488 419.31 170.26C418.624 172.032 418.281 174.661 418.281 178.147ZM400.535 186.034C400.535 180.605 400.593 175.947 400.707 172.06C400.878 168.117 401.421 164.802 402.336 162.116C403.307 159.43 404.793 157.315 406.794 155.772C408.851 154.172 411.766 153.029 415.538 152.343C418.11 151.886 422.768 151.629 429.512 151.571C436.313 151.457 445.2 151.4 456.173 151.4C459.773 151.4 462.888 151.714 465.517 152.343C468.146 152.972 470.347 153.972 472.118 155.343C473.947 156.658 475.376 158.401 476.405 160.573C477.433 162.745 478.148 165.374 478.548 168.46C478.776 170.06 478.891 172.146 478.891 174.718C478.948 177.29 478.976 180.29 478.976 183.719C478.976 187.891 478.719 191.435 478.205 194.35C477.691 197.207 476.805 199.608 475.547 201.551C474.29 203.494 472.604 205.008 470.489 206.094C468.432 207.18 465.832 208.009 462.688 208.58C459.545 209.095 455.83 209.409 451.544 209.523C447.314 209.695 442.371 209.781 436.713 209.781C430.312 209.781 424.825 209.581 420.253 209.18C415.681 208.838 411.937 207.895 409.023 206.351C406.108 204.751 403.965 202.379 402.593 199.236C401.221 196.036 400.535 191.635 400.535 186.034Z" fill="#FF0000"/>
</svg>
