<svg width="118" height="45" viewBox="0 0 118 45" fill="none" xmlns="http://www.w3.org/2000/svg">
<g clip-path="url(#clip0_27_227)">
<path d="M118 34.2703V23.3828H84.0086C77.1429 23.3828 71.7232 27.0011 65.6104 29.4577L93.7011 34.1968L99.6291 34.2132H100.733L101.828 34.2186L107.452 34.2322L109.104 34.2377L110.651 34.2431L117.995 34.273L118 34.2703Z" fill="#FF0000"/>
<path d="M47.4758 39.8746C44.0321 38.0627 40.7759 36.3488 37.0658 36.3488H21.4318C21.1328 36.0468 20.8964 35.6768 20.736 35.2606C20.6083 34.9287 20.5321 34.5614 20.5131 34.1724C20.5104 34.1071 20.505 34.0445 20.505 33.9765V11.1215C20.505 11.0072 20.5104 10.8929 20.5213 10.7814C20.5566 10.3896 20.6545 10.0251 20.7985 9.69319C20.9861 9.26879 21.2551 8.90152 21.5895 8.6077L28.833 8.62675L37.0686 8.64851C40.7814 8.64851 44.0348 6.93731 47.4786 5.12273C49.7726 3.91482 52.1237 2.67971 54.7384 1.86083L43.2412 0.136026C42.6514 0.0462487 41.999 0 41.2978 0C35.1469 0 25.1147 3.38976 17.6973 8.59954C17.1944 8.95321 16.7025 9.31503 16.2268 9.68503C15.7702 10.0387 15.3244 10.4005 14.895 10.7705C11.1631 13.9671 8.54297 17.6779 8.19779 21.6199C8.17332 21.9137 8.1543 22.2075 8.1543 22.5041C8.1543 22.7653 8.16789 23.0264 8.18963 23.2876C8.49948 27.2296 11.1251 30.9567 14.8732 34.1751C15.3027 34.5451 15.7484 34.9069 16.2078 35.2633C16.6862 35.6333 17.1754 35.9978 17.6809 36.3515C25.1066 41.5776 35.1578 45.0027 41.3114 45.0027C42.0072 45.0027 42.6541 44.9592 43.2385 44.8694L54.7384 43.1392C52.1237 42.3203 49.7699 41.0852 47.4758 39.8773V39.8746Z" fill="#FF0000"/>
<path d="M109.131 10.8276H92.9752L65.2568 15.5042C71.5137 17.9608 77.0095 21.7179 84.0057 21.7179H117.997V10.8304H109.128L109.131 10.8276Z" fill="#FF0000"/>
<path d="M0 23.2849V34.1724H11.6657C8.19754 30.6983 6.24872 26.9875 6.00682 23.2849H0Z" fill="#FF0000"/>
<path d="M0 21.6172H6.01497C6.28406 17.9146 8.23831 14.2147 11.6929 10.7596L0 10.7297L0 21.6172Z" fill="#FF0000"/>
<path d="M100.763 36.3896L93.5192 36.3705L86.966 35.266L82.3046 34.4798L63.0366 31.2288C62.4712 31.1308 61.9141 31.0138 61.365 30.8778C60.6176 30.6955 59.8891 30.4806 59.1689 30.2467C58.4649 30.0154 57.7718 29.7624 57.0869 29.4958C50.83 27.0392 45.3341 23.2822 38.338 23.2822H22.6768V33.9765C22.6768 34.0445 22.6849 34.1098 22.6903 34.1724H37.0632C38.1885 34.1724 39.2621 34.3057 40.3031 34.5342C46.5246 35.8972 51.5149 40.7179 58.2311 41.7245L61.1748 42.1679L64.8006 42.7121L67.611 43.1337L79.1055 44.8613C79.6953 44.951 80.3476 44.9973 81.0489 44.9973C87.1998 44.9973 97.232 41.6075 104.649 36.3977L100.76 36.3869L100.763 36.3896Z" fill="#FF0000"/>
<path d="M64.7971 2.28523L61.1713 2.82933L58.2358 3.27006C51.4272 4.29297 46.3907 9.23614 40.0468 10.5175C39.0874 10.7107 38.098 10.8249 37.0679 10.8249L35.293 10.8195L28.6475 10.8032L22.7195 10.7868C22.695 10.8902 22.6787 10.999 22.6787 11.1187V21.6145H38.3399C45.2056 21.6145 50.6254 17.9962 56.7382 15.5396C57.4095 15.2702 58.089 15.0145 58.7794 14.7805C59.5024 14.5357 60.2363 14.3126 60.9864 14.1167C61.6578 13.9426 62.34 13.7903 63.0385 13.6679L82.0456 10.4604L86.3455 9.73399L92.7954 8.64579H104.668C97.2421 3.42513 87.1908 0 81.0373 0C80.3414 0 79.6946 0.0435282 79.1102 0.133305L67.6103 1.86355L64.7971 2.28795V2.28523Z" fill="#FF0000"/>
</g>
<defs>
<clipPath id="clip0_27_227">
<rect width="118" height="45" fill="white"/>
</clipPath>
</defs>
</svg>
